<svg xmlns="http://www.w3.org/2000/svg" viewBox="0 0 358 358" aria-hidden="true"><path d="M51.1428 102.286C79.3882 102.286 102.286 79.3883 102.286 51.1429C102.286 22.8974 79.3882 0 51.1428 0C22.8974 0 0 22.8974 0 51.1429C0 79.3883 22.8974 102.286 51.1428 102.286Z" fill="currentColor"/><path d="M179 102.286C207.246 102.286 230.143 79.3883 230.143 51.1429C230.143 22.8974 207.246 0 179 0C150.755 0 127.857 22.8974 127.857 51.1429C127.857 79.3883 150.755 102.286 179 102.286Z" fill="currentColor"/><path d="M306.857 102.286C335.103 102.286 358 79.3883 358 51.1429C358 22.8974 335.103 0 306.857 0C278.612 0 255.714 22.8974 255.714 51.1429C255.714 79.3883 278.612 102.286 306.857 102.286Z" fill="currentColor"/><path d="M179 230.143C207.246 230.143 230.143 207.245 230.143 179C230.143 150.755 207.246 127.857 179 127.857C150.755 127.857 127.857 150.755 127.857 179C127.857 207.245 150.755 230.143 179 230.143Z" fill="currentColor"/><path d="M306.857 358C335.103 358 358 335.103 358 306.857C358 278.612 335.103 255.714 306.857 255.714C278.612 255.714 255.714 278.612 255.714 306.857C255.714 335.103 278.612 358 306.857 358Z" fill="currentColor"/><path d="M306.857 230.143C335.103 230.143 358 207.245 358 179C358 150.755 335.103 127.857 306.857 127.857C278.612 127.857 255.714 150.755 255.714 179C255.714 207.245 278.612 230.143 306.857 230.143Z" fill="currentColor"/><path d="M51.1428 358C79.3882 358 102.286 335.103 102.286 306.857C102.286 278.612 79.3882 255.714 51.1428 255.714C22.8974 255.714 0 278.612 0 306.857C0 335.103 22.8974 358 51.1428 358Z" fill="currentColor"/></svg>