<svg xmlns="http://www.w3.org/2000/svg" viewBox="0 0 44 44" aria-hidden="true"><path d="M11.7333 38.1333C11.7333 41.3734 9.10674 44 5.86667 44C2.6266 44 0 41.3734 0 38.1333C0 34.8933 2.6266 32.2667 5.86667 32.2667C9.10674 32.2667 11.7333 34.8933 11.7333 38.1333Z" fill="currentColor"/><path d="M27.8667 5.86667C27.8667 9.10674 25.2401 11.7333 22 11.7333C18.7599 11.7333 16.1333 9.10674 16.1333 5.86667C16.1333 2.6266 18.7599 0 22 0C25.2401 0 27.8667 2.6266 27.8667 5.86667Z" fill="currentColor"/><path d="M44 38.1333C44 41.3734 41.3734 44 38.1333 44C34.8933 44 32.2667 41.3734 32.2667 38.1333C32.2667 34.8933 34.8933 32.2667 38.1333 32.2667C41.3734 32.2667 44 34.8933 44 38.1333Z" fill="currentColor"/></svg>