<svg xmlns="http://www.w3.org/2000/svg" viewBox="0 0 44 44" aria-hidden="true"><path d="M11.7333 38.1333C11.7333 41.3734 9.10674 44 5.86667 44C2.6266 44 0 41.3734 0 38.1333C0 34.8933 2.6266 32.2667 5.86667 32.2667C9.10674 32.2667 11.7333 34.8933 11.7333 38.1333Z" fill="currentColor"/><path d="M44 5.86667C44 9.10674 41.3734 11.7333 38.1333 11.7333C34.8933 11.7333 32.2667 9.10674 32.2667 5.86667C32.2667 2.6266 34.8933 0 38.1333 0C41.3734 0 44 2.6266 44 5.86667Z" fill="currentColor"/><path d="M27.8667 22C27.8667 25.2401 25.2401 27.8667 22 27.8667C18.7599 27.8667 16.1333 25.2401 16.1333 22C16.1333 18.7599 18.7599 16.1333 22 16.1333C25.2401 16.1333 27.8667 18.7599 27.8667 22Z" fill="currentColor"/><path d="M44 22C44 25.2401 41.3734 27.8667 38.1333 27.8667C34.8933 27.8667 32.2667 25.2401 32.2667 22C32.2667 18.7599 34.8933 16.1333 38.1333 16.1333C41.3734 16.1333 44 18.7599 44 22Z" fill="currentColor"/><path d="M44 38.1333C44 41.3734 41.3734 44 38.1333 44C34.8933 44 32.2667 41.3734 32.2667 38.1333C32.2667 34.8933 34.8933 32.2667 38.1333 32.2667C41.3734 32.2667 44 34.8933 44 38.1333Z" fill="currentColor"/><path d="M27.8667 38.1333C27.8667 41.3734 25.2401 44 22 44C18.7599 44 16.1333 41.3734 16.1333 38.1333C16.1333 34.8933 18.7599 32.2667 22 32.2667C25.2401 32.2667 27.8667 34.8933 27.8667 38.1333Z" fill="currentColor"/></svg>