<svg xmlns="http://www.w3.org/2000/svg" viewBox="0 0 500 500"><path fill="currentColor" d="M175.655 197.696h-56.507a4.54 4.54 0 0 0-4.54 4.54v181.535a4.54 4.54 0 0 0 4.54 4.54h56.507a4.54 4.54 0 0 0 4.54-4.54V202.236a4.54 4.54 0 0 0-4.54-4.54zm-28.233-90.246c-20.56 0-37.288 16.71-37.288 37.248 0 20.547 16.727 37.262 37.288 37.262 20.544 0 37.258-16.716 37.258-37.262 0-20.538-16.714-37.247-37.258-37.247zm171.964 85.734c-22.695 0-39.472 9.757-49.648 20.842v-11.79a4.54 4.54 0 0 0-4.54-4.54h-54.116a4.54 4.54 0 0 0-4.54 4.54v181.535a4.54 4.54 0 0 0 4.54 4.54h56.384a4.54 4.54 0 0 0 4.54-4.54v-89.818c0-30.266 8.22-42.058 29.32-42.058 22.977 0 24.803 18.903 24.803 43.615v88.262a4.54 4.54 0 0 0 4.54 4.54h56.405a4.54 4.54 0 0 0 4.54-4.54v-99.575c0-45.005-8.582-91.013-72.228-91.013z"/><path fill="currentColor" d="M60 0h390a50 50 0 0 1 50 50v400a50 50 0 0 1-50 50H50a50 50 0 0 1-50-50V60A60 60 0 0 1 60 0Z" style="fill:none;stroke-linejoin:round;paint-order:fill;stroke-width:45px" transform="matrix(.908 0 0 .908 23 23)"/><path fill="currentColor" d="M77.48 2.57H431.6c8.394.223 18.417 2.131 25.63 5.182 7.271 3.075 15.458 8.638 20.919 14.1 5.461 5.46 11.024 13.647 14.099 20.918 3.05 7.213 4.959 17.236 5.182 25.63v363.2c-.223 8.394-2.131 18.417-5.182 25.63-3.075 7.271-8.638 15.458-14.1 20.919-5.46 5.461-13.647 11.024-20.918 14.099-7.213 3.05-17.236 4.959-25.63 5.182H68.4c-8.394-.223-18.417-2.131-25.63-5.182-7.271-3.075-15.458-8.638-20.919-14.1-5.461-5.46-11.024-13.647-14.099-20.918-3.05-7.213-4.959-17.236-5.182-25.63V77.48c.223-9.647 2.384-20.865 5.895-29.165C12 39.958 18.228 30.793 24.51 24.511 30.793 18.228 39.958 12 48.315 8.465c8.3-3.51 19.518-5.672 29.165-5.895ZM64.232 46.098c-4.678 1.978-7.253 3.729-10.83 7.305-3.575 3.576-5.326 6.151-7.304 10.83-2.004 4.735-2.891 7.85-2.668 13.247V431.6c-.223 4.143.41 6.064 1.954 9.713 1.52 3.593 2.605 5.19 5.36 7.943 2.754 2.755 4.35 3.84 7.943 5.36 3.65 1.544 5.57 2.177 9.713 1.954h363.2c4.143.223 6.064-.41 9.713-1.954 3.593-1.52 5.19-2.605 7.943-5.36 2.755-2.754 3.84-4.35 5.36-7.943 1.544-3.65 2.177-5.57 1.954-9.713V68.4c.223-4.143-.41-6.064-1.954-9.713-1.52-3.593-2.605-5.19-5.36-7.943-2.754-2.755-4.35-3.84-7.943-5.36-3.65-1.544-5.57-2.177-9.713-1.954H77.48c-5.396-.223-8.512.664-13.248 2.668Z"/></svg>