<svg xmlns="http://www.w3.org/2000/svg" viewBox="0 0 36 36"><path fill="currentColor" d="M5.143 10.286A5.143 5.143 0 1 0 5.143 0a5.143 5.143 0 0 0 0 10.286ZM18 10.286A5.143 5.143 0 1 0 18 0a5.143 5.143 0 0 0 0 10.286ZM30.857 10.286a5.143 5.143 0 1 0 0-10.286 5.143 5.143 0 0 0 0 10.286ZM18 23.143a5.143 5.143 0 1 0 0-10.286 5.143 5.143 0 0 0 0 10.286ZM30.857 36a5.143 5.143 0 1 0 0-10.286 5.143 5.143 0 0 0 0 10.286ZM30.857 23.143a5.143 5.143 0 1 0 0-10.286 5.143 5.143 0 0 0 0 10.286ZM5.143 36a5.143 5.143 0 1 0 0-10.286 5.143 5.143 0 0 0 0 10.286Z"/></svg>