<svg xmlns="http://www.w3.org/2000/svg" fill="currentColor" viewBox="0 0 44 44"><path d="M39.125 28.875a.625.625 0 0 0-.625-.625h-33a.625.625 0 0 0-.625.625V33c0 .345.28.625.625.625h33c.345 0 .625-.28.625-.625v-4.125Zm1.5 4.125a2.125 2.125 0 0 1-2.125 2.125h-33A2.125 2.125 0 0 1 3.375 33v-4.125c0-1.174.951-2.125 2.125-2.125h33c1.174 0 2.125.951 2.125 2.125V33Z"/><path d="M25.375 27.5V6.875a.626.626 0 0 0-.625-.625h-5.5a.626.626 0 0 0-.625.625V27.5a.75.75 0 0 1-1.5 0V6.875A2.126 2.126 0 0 1 19.25 4.75h5.5a2.125 2.125 0 0 1 2.125 2.125V27.5a.75.75 0 0 1-1.5 0Z"/><path d="M36.375 27.5v-4.125A14.375 14.375 0 0 0 25.921 9.54a.75.75 0 0 1 .408-1.444 15.875 15.875 0 0 1 11.546 15.278V27.5a.75.75 0 0 1-1.5 0Zm-30.25 0v-4.125A15.875 15.875 0 0 1 17.671 8.097a.75.75 0 0 1 .408 1.444A14.375 14.375 0 0 0 7.625 23.375V27.5a.75.75 0 0 1-1.5 0Z"/></svg>