<svg xmlns="http://www.w3.org/2000/svg" fill="currentColor" viewBox="0 0 44 44"><path d="M25.375 8.25a3.375 3.375 0 1 0-6.75 0 3.375 3.375 0 0 0 6.75 0Zm1.5 0a4.875 4.875 0 1 1-9.75 0 4.875 4.875 0 0 1 9.75 0Zm10.25 8.875a.75.75 0 0 1 0 1.5H6.875a.75.75 0 0 1 0-1.5h30.25Z"/><path d="M21.25 17.875a.75.75 0 0 1 1.5 0v6.875a.75.75 0 0 1-.248.558L8.752 37.683a.75.75 0 0 1-1.004-1.116L21.25 24.415v-6.54Z"/><path d="M30.875 37.125v-7.756l-9.17-3.93a.75.75 0 0 1 .59-1.378l9.626 4.125a.75.75 0 0 1 .454.689v8.25a.75.75 0 0 1-1.5 0Z"/></svg>