<svg xmlns="http://www.w3.org/2000/svg" fill="currentColor" viewBox="0 0 44 44"><path d="M39.125 22c0-.352-.125-.72-.38-1.133-.258-.418-.623-.84-1.053-1.298-.41-.437-.904-.93-1.322-1.416-.371-.43-.73-.906-.984-1.43l-.102-.227c-.248-.6-.34-1.269-.382-1.906-.04-.625-.036-1.327-.052-1.92-.037-1.3-.186-2.225-.74-2.78-.555-.554-1.48-.703-2.78-.74-.593-.016-1.295-.012-1.92-.052-.637-.042-1.306-.134-1.906-.382-.611-.254-1.162-.662-1.653-1.086-.485-.418-.979-.912-1.416-1.322-.458-.43-.881-.795-1.3-1.053-.414-.255-.782-.38-1.135-.38-.352 0-.72.125-1.133.38-.418.258-.84.623-1.298 1.053-.437.41-.93.904-1.416 1.322-.492.424-1.044.832-1.657 1.086-.6.248-1.269.34-1.906.382-.625.04-1.327.036-1.92.052-1.3.037-2.225.186-2.78.74-.554.555-.703 1.48-.74 2.78-.016.593-.012 1.295-.052 1.92-.042.637-.134 1.306-.382 1.906-.254.611-.662 1.162-1.086 1.653-.418.485-.912.979-1.322 1.416-.43.458-.795.881-1.053 1.3-.255.414-.38.782-.38 1.135s.125.72.38 1.135c.258.419.623.841 1.053 1.3.41.437.904.931 1.322 1.416.37.43.73.904.983 1.425l.103.227c.248.6.34 1.27.382 1.907.04.625.036 1.327.052 1.92.037 1.3.186 2.225.74 2.78.555.554 1.48.703 2.78.74.593.016 1.295.012 1.92.052.637.042 1.306.134 1.906.382.611.254 1.162.662 1.653 1.086.485.418.979.912 1.416 1.322.458.43.881.795 1.3 1.053.414.256.782.38 1.135.38s.72-.124 1.135-.38c.419-.258.841-.623 1.3-1.053.437-.41.931-.904 1.416-1.322.491-.424 1.041-.832 1.652-1.086.6-.248 1.27-.34 1.907-.382.625-.04 1.327-.036 1.92-.052 1.3-.037 2.225-.186 2.78-.74.554-.555.703-1.48.74-2.78.016-.593.012-1.295.052-1.92.042-.637.134-1.306.382-1.906.254-.611.662-1.162 1.086-1.653.418-.485.912-.979 1.322-1.416.43-.458.795-.881 1.053-1.3.256-.414.38-.782.38-1.135Zm1.5 0c0 .722-.258 1.364-.603 1.923-.343.554-.795 1.068-1.236 1.538-.46.49-.888.915-1.28 1.37-.385.445-.673.852-.837 1.245v.001c-.153.373-.232.849-.27 1.43-.038.595-.03 1.188-.05 1.866-.035 1.243-.152 2.77-1.18 3.797-1.026 1.027-2.553 1.144-3.796 1.18-.678.019-1.27.01-1.865.05-.582.037-1.058.116-1.43.27l-.002-.001c-.393.164-.8.452-1.246.837-.454.392-.879.82-1.37 1.28-.469.44-.983.893-1.537 1.236-.56.345-1.201.603-1.923.603s-1.364-.258-1.923-.603c-.554-.343-1.068-.795-1.538-1.236-.49-.46-.915-.888-1.37-1.28-.445-.385-.853-.673-1.246-.837-.373-.154-.848-.232-1.43-.27-.594-.038-1.187-.03-1.865-.05-1.243-.035-2.771-.152-3.798-1.18-1.027-1.026-1.144-2.553-1.18-3.796-.019-.678-.01-1.27-.05-1.865-.037-.582-.116-1.058-.27-1.43-.164-.394-.451-.802-.836-1.248-.392-.454-.82-.879-1.28-1.37-.44-.469-.894-.983-1.235-1.537-.345-.56-.604-1.201-.604-1.923s.259-1.364.604-1.923c.341-.554.794-1.068 1.235-1.538.46-.49.888-.915 1.28-1.37.385-.445.672-.853.836-1.246l.055-.145c.119-.348.183-.776.216-1.285.038-.594.03-1.187.05-1.865.035-1.243.152-2.771 1.18-3.798 1.026-1.027 2.554-1.144 3.797-1.18.678-.019 1.27-.01 1.865-.05.582-.037 1.057-.116 1.43-.27.395-.164.804-.452 1.25-.837.455-.391.88-.82 1.369-1.28.47-.44.982-.892 1.536-1.234.559-.346 1.2-.604 1.922-.604s1.364.259 1.923.604c.554.341 1.068.794 1.538 1.235.49.46.915.888 1.37 1.28.445.385.852.672 1.245.836.373.154.85.233 1.432.27.595.04 1.187.031 1.865.05 1.243.036 2.77.153 3.797 1.18 1.027 1.027 1.144 2.554 1.18 3.797.019.678.01 1.27.05 1.865.037.582.116 1.058.27 1.43l.067.15c.17.349.433.71.77 1.102.391.454.82.878 1.28 1.368.44.47.892.982 1.235 1.536.345.559.603 1.2.603 1.922Z"/><path d="M28.345 17.345a.75.75 0 1 1 1.06 1.06L19.78 28.03a.75.75 0 0 1-1.06 0l-4.125-4.125a.75.75 0 1 1 1.06-1.06l3.595 3.595 9.095-9.095Z"/></svg>