<svg xmlns="http://www.w3.org/2000/svg" fill="currentColor" viewBox="0 0 44 44"><path d="M21.25 39.875v-24.75a.75.75 0 1 1 1.5 0v24.75a.75.75 0 0 1-1.5 0Z"/><path d="M13.08 21.665a.75.75 0 0 1 1.005-.336l8.25 4.125a.75.75 0 0 1-.67 1.342l-8.25-4.125a.75.75 0 0 1-.336-1.006Zm16.835-4.461a.75.75 0 0 1 .67 1.342l-8.25 4.125a.75.75 0 0 1-.67-1.342l8.25-4.125Z"/><path d="M22 3.36a12.439 12.439 0 0 1 11.562 7.86 11.751 11.751 0 0 1 7.063 10.74c.015 6.24-5.205 11.62-11.445 11.78A11.7 11.7 0 0 1 22 31.525a11.699 11.699 0 0 1-7.179 2.221c-6.239-.158-11.463-5.539-11.446-11.779l.009-.437a11.75 11.75 0 0 1 7.053-10.31A12.436 12.436 0 0 1 22 3.36Zm0 1.5a10.938 10.938 0 0 0-10.274 7.184.75.75 0 0 1-.424.439 10.25 10.25 0 0 0-6.427 9.488C4.86 27.398 9.437 32.11 14.86 32.246c2.42.066 4.785-.73 6.67-2.247l.108-.073a.751.751 0 0 1 .832.072 10.202 10.202 0 0 0 6.67 2.242h.002c5.253-.134 9.71-4.56 9.971-9.769l.012-.507a10.249 10.249 0 0 0-6.427-9.481.75.75 0 0 1-.425-.439A10.94 10.94 0 0 0 22 4.861Z"/></svg>