<svg xmlns="http://www.w3.org/2000/svg" fill="none" viewBox="0 0 37 64"><path fill="color(display-p3 .1255 .1255 .1255)" d="M0 18C0 8.059 8.059 0 18 0s18 8.059 18 18-8.059 18-18 18S0 27.941 0 18Z"/><path stroke="color(display-p3 .7529 .7529 .7529)" stroke-linecap="round" stroke-linejoin="round" stroke-width="1.5" d="M12.255 23.745c-.72-.718-.243-2.229-.608-3.113-.38-.913-1.772-1.655-1.772-2.632 0-.977 1.392-1.719 1.772-2.632.365-.884-.111-2.395.608-3.113.718-.72 2.23-.243 3.113-.608.917-.38 1.655-1.772 2.632-1.772.977 0 1.719 1.392 2.632 1.772.884.365 2.395-.111 3.113.608.72.718.242 2.229.608 3.113.38.917 1.772 1.655 1.772 2.632 0 .977-1.392 1.719-1.772 2.632-.366.884.111 2.395-.608 3.113-.718.72-2.229.242-3.113.608-.913.38-1.655 1.772-2.632 1.772-.977 0-1.719-1.392-2.632-1.772-.884-.366-2.395.111-3.113-.608Z"/><path stroke="color(display-p3 .7529 .7529 .7529)" stroke-linecap="round" stroke-linejoin="round" stroke-width="1.5" d="M14.875 18.625 16.75 20.5l4.375-4.375"/><path fill="color(display-p3 .7529 .7529 .7529)" d="M1.575 42.538V49H.711v-6.462h.864Zm.746 5.13.675-.54c.405.774 1.134 1.224 1.971 1.224.837 0 1.485-.414 1.485-1.152 0-.783-.747-.918-1.728-1.152-1.017-.243-2.025-.522-2.025-1.737 0-1.134.981-1.872 2.205-1.872 1.125 0 1.935.54 2.322 1.269l-.657.522c-.333-.621-.846-1.044-1.683-1.044-.783 0-1.35.432-1.35 1.053 0 .684.603.828 1.512 1.044 1.071.252 2.25.477 2.25 1.845 0 1.206-1.07 1.971-2.349 1.971-1.116 0-2.187-.558-2.628-1.431Zm5.58-1.899c0-1.971 1.241-3.33 2.933-3.33 1.692 0 2.925 1.359 2.925 3.33s-1.233 3.33-2.925 3.33c-1.692 0-2.934-1.359-2.934-3.33Zm5.003 0c0-1.53-.855-2.565-2.07-2.565-1.215 0-2.07 1.035-2.07 2.565s.855 2.565 2.07 2.565c1.215 0 2.07-1.035 2.07-2.565Zm3.425 1.836.711-.297c.18.621.612 1.071 1.36 1.071.998 0 1.763-.981 1.763-2.493v-.09c-.297.567-.927 1.017-1.746 1.017-1.197 0-2.106-.936-2.106-2.151 0-1.26.972-2.223 2.241-2.223 1.656 0 2.403 1.476 2.403 3.267 0 2.052-1.089 3.393-2.583 3.393-1.116 0-1.764-.603-2.043-1.494Zm.774-2.988c0 .837.621 1.485 1.44 1.485.81 0 1.458-.648 1.458-1.485 0-.837-.63-1.467-1.449-1.467-.819 0-1.449.63-1.449 1.467Zm4.535 1.152c0-1.971.927-3.33 2.466-3.33 1.53 0 2.457 1.359 2.457 3.33s-.927 3.33-2.457 3.33c-1.54 0-2.466-1.359-2.466-3.33Zm.864 0c0 1.512.549 2.574 1.602 2.574 1.044 0 1.602-1.062 1.602-2.574 0-1.512-.558-2.574-1.602-2.574-1.053 0-1.602 1.062-1.602 2.574Zm4.743 0c0-1.971.927-3.33 2.466-3.33 1.53 0 2.457 1.359 2.457 3.33s-.927 3.33-2.457 3.33c-1.539 0-2.466-1.359-2.466-3.33Zm.864 0c0 1.512.55 2.574 1.602 2.574 1.044 0 1.602-1.062 1.602-2.574 0-1.512-.558-2.574-1.602-2.574-1.053 0-1.602 1.062-1.602 2.574Zm6.294-3.267h.648V49h-.864v-4.752H32.63v-.639l.693-.045c.765-.054 1.017-.315 1.08-1.062ZM.333 58.769c0-1.971 1.242-3.33 2.934-3.33 1.692 0 2.925 1.359 2.925 3.33 0 1.26-.504 2.277-1.314 2.835.261.378.756.675 1.26.801l-.504.621c-.576-.162-1.179-.603-1.44-1.071-.288.09-.603.144-.927.144-1.692 0-2.934-1.359-2.934-3.33Zm5.004 0c0-1.53-.855-2.565-2.07-2.565-1.215 0-2.07 1.035-2.07 2.565s.855 2.565 2.07 2.565c1.215 0 2.07-1.035 2.07-2.565Zm5.603-1.476V62h-.81v-.648c-.27.396-.729.747-1.395.747-1.008 0-1.575-.693-1.575-1.692v-3.114h.81v2.943c0 .666.288 1.116.981 1.116.585 0 1.18-.441 1.18-1.224v-2.835h.81Zm2.524 4.788c-.855 0-1.548-.504-1.548-1.35 0-.936.73-1.323 1.782-1.539l1.143-.234v-.198c0-.54-.297-.846-.927-.846-.594 0-.945.279-1.089.801l-.765-.198c.225-.765.918-1.314 1.881-1.314 1.053 0 1.701.513 1.701 1.521v2.295c0 .306.19.405.504.333V62c-.72.09-1.134-.081-1.233-.531-.288.369-.81.612-1.449.612Zm1.377-1.683v-.81l-.918.198c-.72.144-1.206.342-1.206.909 0 .459.333.729.846.729.693 0 1.278-.423 1.278-1.026Zm2.992-4.86V62h-.81v-6.462h.81Zm1.316.936v-.936h.882v.936h-.882Zm.846.819V62h-.81v-4.707h.81Zm1.478 3.582v-2.889h-.73v-.693h.73v-1.377h.8v1.377h1.072v.693h-1.071v2.763c0 .495.243.585.657.585.189 0 .324-.009.513-.054v.693a3.327 3.327 0 0 1-.711.072c-.801 0-1.26-.27-1.26-1.17Zm4.66 1.638c-.27.711-.638 1.161-1.457 1.161-.198 0-.297-.009-.441-.036v-.702c.153.036.252.045.387.045.35 0 .54-.126.729-.594l.225-.558-1.746-4.536h.855l1.323 3.6 1.305-3.6h.846l-2.025 5.22Z"/></svg>