<svg xmlns="http://www.w3.org/2000/svg" fill="none" viewBox="0 0 43 64"><path fill="color(display-p3 .1255 .1255 .1255)" d="M0 18C0 8.059 8.059 0 18 0s18 8.059 18 18-8.059 18-18 18S0 27.941 0 18Z"/><path stroke="color(display-p3 .7529 .7529 .7529)" stroke-linecap="round" stroke-linejoin="round" stroke-width="1.5" d="M18 13.625a1.875 1.875 0 1 0 0-3.75 1.875 1.875 0 0 0 0 3.75Zm-6.875 2.5h13.75m-6.875 0v3.125l-6.25 5.625M18 19.25l4.375 1.875v3.75"/><path fill="color(display-p3 .7529 .7529 .7529)" d="M1.575 42.538V49H.711v-6.462h.864Zm.746 5.13.675-.54c.405.774 1.134 1.224 1.971 1.224.837 0 1.485-.414 1.485-1.152 0-.783-.747-.918-1.728-1.152-1.017-.243-2.025-.522-2.025-1.737 0-1.134.981-1.872 2.205-1.872 1.125 0 1.935.54 2.322 1.269l-.657.522c-.333-.621-.846-1.044-1.683-1.044-.783 0-1.35.432-1.35 1.053 0 .684.603.828 1.512 1.044 1.071.252 2.25.477 2.25 1.845 0 1.206-1.07 1.971-2.349 1.971-1.116 0-2.187-.558-2.628-1.431Zm5.58-1.899c0-1.971 1.241-3.33 2.933-3.33 1.692 0 2.925 1.359 2.925 3.33s-1.233 3.33-2.925 3.33c-1.692 0-2.934-1.359-2.934-3.33Zm5.003 0c0-1.53-.855-2.565-2.07-2.565-1.215 0-2.07 1.035-2.07 2.565s.855 2.565 2.07 2.565c1.215 0 2.07-1.035 2.07-2.565ZM20.055 49h-.8v-1.683H16.13v-.675l2.835-4.104h1.098v4.059h1.251v.72h-1.26V49Zm-3.042-2.403h2.232v-3.231l-2.232 3.231Zm5.864-.603-.792-.135.28-3.321h3.518v.756H23.03l-.17 1.953c.278-.279.72-.504 1.286-.504 1.26 0 2.088.936 2.088 2.16 0 1.224-.963 2.196-2.259 2.196-1.215 0-2.097-.684-2.322-1.908l.828-.171c.135.828.693 1.359 1.494 1.359.82 0 1.45-.63 1.45-1.458 0-.819-.559-1.476-1.378-1.476-.54 0-.954.243-1.17.549Zm3.964-.225c0-1.971.927-3.33 2.466-3.33 1.53 0 2.457 1.359 2.457 3.33s-.927 3.33-2.457 3.33c-1.539 0-2.466-1.359-2.466-3.33Zm.864 0c0 1.512.549 2.574 1.602 2.574 1.044 0 1.602-1.062 1.602-2.574 0-1.512-.558-2.574-1.602-2.574-1.053 0-1.602 1.062-1.602 2.574Zm4.743 0c0-1.971.927-3.33 2.466-3.33 1.53 0 2.457 1.359 2.457 3.33s-.927 3.33-2.457 3.33c-1.539 0-2.466-1.359-2.466-3.33Zm.864 0c0 1.512.55 2.574 1.602 2.574 1.044 0 1.602-1.062 1.602-2.574 0-1.512-.558-2.574-1.602-2.574-1.053 0-1.602 1.062-1.602 2.574Zm6.995 3.33c-1.233 0-2.215-.675-2.422-1.962l.837-.18c.127.9.765 1.422 1.575 1.422.82 0 1.387-.468 1.387-1.233 0-.765-.621-1.143-1.44-1.143h-.694v-.729h.703c.746 0 1.25-.378 1.25-1.026 0-.666-.459-1.08-1.197-1.08-.773 0-1.313.513-1.457 1.323l-.774-.153c.17-1.08 1.008-1.899 2.25-1.899 1.26 0 1.988.738 1.988 1.764 0 .702-.45 1.242-.998 1.422.648.18 1.206.675 1.206 1.566 0 1.062-.873 1.908-2.215 1.908ZM3.771 55.538h.765l1.368 5.175 1.377-5.175h.855L6.363 62h-.846L4.14 56.969 2.772 62h-.846L.144 55.538h.891l1.377 5.175 1.359-5.175Zm6.686 6.561c-1.305 0-2.205-.999-2.205-2.448 0-1.404.891-2.448 2.17-2.448 1.313 0 2.006.999 2.006 2.304v.27H9.026c.045.99.612 1.62 1.431 1.62.63 0 1.08-.342 1.224-.9l.711.252c-.288.837-.999 1.35-1.935 1.35Zm-.045-4.203c-.684 0-1.197.459-1.34 1.26h2.537c-.018-.666-.378-1.26-1.197-1.26Zm3.835-2.358V62h-.81v-6.462h.81Zm2.162 0V62h-.81v-6.462h.81Zm1.136 4.203v-.729h2.457v.729h-2.457Zm5.859 2.358c-.657 0-1.18-.315-1.458-.783V62h-.81v-6.462h.81v2.439c.279-.459.8-.774 1.458-.774 1.305 0 2.052 1.107 2.052 2.448 0 1.332-.747 2.448-2.052 2.448Zm-1.476-2.61v.333c0 1.08.666 1.566 1.332 1.566.882 0 1.377-.729 1.377-1.737 0-1.017-.495-1.737-1.377-1.737-.666 0-1.332.477-1.332 1.575Zm6.433 2.61c-1.305 0-2.205-.999-2.205-2.448 0-1.404.89-2.448 2.169-2.448 1.314 0 2.007.999 2.007 2.304v.27H26.93c.045.99.612 1.62 1.43 1.62.63 0 1.08-.342 1.225-.9l.71.252c-.287.837-.998 1.35-1.934 1.35Zm-.045-4.203c-.684 0-1.197.459-1.341 1.26h2.538c-.018-.666-.378-1.26-1.197-1.26Zm2.988-1.422v-.936h.882v.936h-.882Zm.846.819V62h-.81v-4.707h.81ZM33.502 62v-4.707h.81v.639c.27-.387.738-.729 1.404-.729 1 0 1.566.693 1.566 1.692V62h-.81v-2.889c0-.657-.279-1.152-.98-1.152-.586 0-1.18.45-1.18 1.233V62h-.81Zm9.067-.423c0 1.377-.909 2.142-2.187 2.142-1.035 0-1.79-.477-2.052-1.341l.756-.288c.153.603.64.954 1.296.954.828 0 1.377-.423 1.377-1.404v-.531c-.252.459-.783.783-1.44.783-1.287 0-2.043-1.062-2.043-2.349 0-1.278.756-2.34 2.043-2.34.648 0 1.188.324 1.44.783v-.693h.81v4.284Zm-.8-2.106c0-1.053-.63-1.557-1.306-1.557-.855 0-1.377.639-1.377 1.629s.522 1.638 1.377 1.638c.675 0 1.305-.504 1.305-1.539v-.171Z"/></svg>