<svg xmlns="http://www.w3.org/2000/svg" fill="none" viewBox="0 0 51 63"><path fill="color(display-p3 .1255 .1255 .1255)" d="M0 18C0 8.059 8.059 0 18 0s18 8.059 18 18-8.059 18-18 18S0 27.941 0 18Z"/><path stroke="color(display-p3 .7529 .7529 .7529)" stroke-linecap="round" stroke-linejoin="round" stroke-width="1.5" d="M18 26.125v-11.25m0 5L14.25 18M18 18l3.75-1.875M18 21.902a4.978 4.978 0 0 0 3.255 1.093c2.65-.067 4.877-2.36 4.87-5.012a5 5 0 0 0-3.135-4.625 5.312 5.312 0 0 0-9.98 0 5 5 0 0 0-3.135 4.628c-.007 2.651 2.22 4.945 4.871 5.012A4.977 4.977 0 0 0 18 21.902Z"/><path fill="color(display-p3 .7529 .7529 .7529)" d="M1.575 42.538V49H.711v-6.462h.864Zm.746 5.13.675-.54c.405.774 1.134 1.224 1.971 1.224.837 0 1.485-.414 1.485-1.152 0-.783-.747-.918-1.728-1.152-1.017-.243-2.025-.522-2.025-1.737 0-1.134.981-1.872 2.205-1.872 1.125 0 1.935.54 2.322 1.269l-.657.522c-.333-.621-.846-1.044-1.683-1.044-.783 0-1.35.432-1.35 1.053 0 .684.603.828 1.512 1.044 1.071.252 2.25.477 2.25 1.845 0 1.206-1.07 1.971-2.349 1.971-1.116 0-2.187-.558-2.628-1.431Zm5.58-1.899c0-1.971 1.241-3.33 2.933-3.33 1.692 0 2.925 1.359 2.925 3.33s-1.233 3.33-2.925 3.33c-1.692 0-2.934-1.359-2.934-3.33Zm5.003 0c0-1.53-.855-2.565-2.07-2.565-1.215 0-2.07 1.035-2.07 2.565s.855 2.565 2.07 2.565c1.215 0 2.07-1.035 2.07-2.565Zm5.072-3.267h.648V49h-.864v-4.752h-1.557v-.639l.693-.045c.765-.054 1.017-.315 1.08-1.062ZM23.421 49h-.8v-1.683h-3.124v-.675l2.835-4.104h1.098v4.059h1.251v.72h-1.26V49Zm-3.042-2.403h2.232v-3.231l-2.232 3.231Zm4.704-.828c0-1.971.927-3.33 2.466-3.33 1.53 0 2.457 1.359 2.457 3.33s-.927 3.33-2.457 3.33c-1.539 0-2.466-1.359-2.466-3.33Zm.864 0c0 1.512.55 2.574 1.602 2.574 1.044 0 1.602-1.062 1.602-2.574 0-1.512-.558-2.574-1.602-2.574-1.053 0-1.602 1.062-1.602 2.574Zm4.744 0c0-1.971.927-3.33 2.466-3.33 1.53 0 2.457 1.359 2.457 3.33s-.927 3.33-2.457 3.33c-1.54 0-2.466-1.359-2.466-3.33Zm.864 0c0 1.512.549 2.574 1.602 2.574 1.044 0 1.602-1.062 1.602-2.574 0-1.512-.558-2.574-1.602-2.574-1.053 0-1.602 1.062-1.602 2.574Zm6.293-3.267h.648V49h-.864v-4.752h-1.557v-.639l.693-.045c.765-.054 1.017-.315 1.08-1.062ZM.711 55.538h4.221v.756H1.566v1.989h2.853v.756H1.566v2.205h3.366V62H.711v-6.462ZM5.922 62v-4.707h.81v.639c.27-.387.738-.729 1.404-.729 1 0 1.566.693 1.566 1.692V62h-.81v-2.889c0-.657-.279-1.152-.98-1.152-.586 0-1.18.45-1.18 1.233V62h-.81Zm7.017 0h-.801l-1.764-4.707h.855l1.323 3.717 1.305-3.717h.846L12.939 62Zm2.518-5.526v-.936h.882v.936h-.882Zm.846.819V62h-.81v-4.707h.81Zm3.791-.018v.819a1.852 1.852 0 0 0-.396-.036c-.683 0-1.233.54-1.233 1.368V62h-.81v-4.707h.81v.801c.207-.477.666-.837 1.305-.837.127 0 .244.009.325.018Zm4.75 2.376c0 1.458-.9 2.448-2.188 2.448-1.287 0-2.187-.99-2.187-2.448s.9-2.448 2.187-2.448 2.187.99 2.187 2.448Zm-3.556 0c0 1.071.54 1.755 1.368 1.755.828 0 1.368-.684 1.368-1.755 0-1.08-.54-1.764-1.368-1.764-.828 0-1.368.684-1.368 1.764ZM25.873 62v-4.707h.81v.639c.27-.387.738-.729 1.404-.729 1 0 1.566.693 1.566 1.692V62h-.81v-2.889c0-.657-.279-1.152-.98-1.152-.586 0-1.18.45-1.18 1.233V62h-.81Zm5.89-2.817V62h-.81v-4.707h.81v.639a1.58 1.58 0 0 1 1.36-.729c.63 0 1.07.315 1.304.801a1.798 1.798 0 0 1 1.503-.801c.972 0 1.557.693 1.557 1.692V62h-.81v-2.889c0-.657-.27-1.152-.936-1.152-.54 0-1.116.459-1.116 1.224V62h-.81v-2.889c0-.657-.27-1.152-.936-1.152-.54 0-1.116.459-1.116 1.224Zm8.911 2.916c-1.305 0-2.205-.999-2.205-2.448 0-1.404.891-2.448 2.17-2.448 1.313 0 2.006.999 2.006 2.304v.27h-3.402c.045.99.612 1.62 1.431 1.62.63 0 1.08-.342 1.224-.9l.711.252c-.288.837-.999 1.35-1.935 1.35Zm-.045-4.203c-.684 0-1.197.459-1.34 1.26h2.537c-.018-.666-.378-1.26-1.197-1.26ZM43.654 62v-4.707h.81v.639c.27-.387.738-.729 1.404-.729.998 0 1.566.693 1.566 1.692V62h-.81v-2.889c0-.657-.28-1.152-.982-1.152-.585 0-1.178.45-1.178 1.233V62h-.81Zm5.206-1.125v-2.889h-.73v-.693h.73v-1.377h.8v1.377h1.072v.693H49.66v2.763c0 .495.243.585.657.585.189 0 .324-.009.513-.054v.693a3.327 3.327 0 0 1-.711.072c-.801 0-1.26-.27-1.26-1.17Z"/></svg>