<svg xmlns="http://www.w3.org/2000/svg" fill="none" viewBox="0 0 63 64"><path fill="color(display-p3 .1255 .1255 .1255)" d="M0 18C0 8.059 8.059 0 18 0s18 8.059 18 18-8.059 18-18 18S0 27.941 0 18Z"/><path stroke="color(display-p3 .7529 .7529 .7529)" stroke-linecap="round" stroke-linejoin="round" stroke-width="1.5" d="M25.5 20.5h-15a.625.625 0 0 0-.625.625V23c0 .345.28.625.625.625h15c.345 0 .625-.28.625-.625v-1.875a.625.625 0 0 0-.625-.625Zm-9.375 0v-9.375a.624.624 0 0 1 .625-.625h2.5a.624.624 0 0 1 .625.625V20.5"/><path stroke="color(display-p3 .7529 .7529 .7529)" stroke-linecap="round" stroke-linejoin="round" stroke-width="1.5" d="M24.875 20.5v-1.875a6.875 6.875 0 0 0-5-6.617m-8.75 8.492v-1.875a6.875 6.875 0 0 1 5-6.617"/><path fill="color(display-p3 .7529 .7529 .7529)" d="M1.575 42.538V49H.711v-6.462h.864Zm.746 5.13.675-.54c.405.774 1.134 1.224 1.971 1.224.837 0 1.485-.414 1.485-1.152 0-.783-.747-.918-1.728-1.152-1.017-.243-2.025-.522-2.025-1.737 0-1.134.981-1.872 2.205-1.872 1.125 0 1.935.54 2.322 1.269l-.657.522c-.333-.621-.846-1.044-1.683-1.044-.783 0-1.35.432-1.35 1.053 0 .684.603.828 1.512 1.044 1.071.252 2.25.477 2.25 1.845 0 1.206-1.07 1.971-2.349 1.971-1.116 0-2.187-.558-2.628-1.431Zm5.58-1.899c0-1.971 1.241-3.33 2.933-3.33 1.692 0 2.925 1.359 2.925 3.33s-1.233 3.33-2.925 3.33c-1.692 0-2.934-1.359-2.934-3.33Zm5.003 0c0-1.53-.855-2.565-2.07-2.565-1.215 0-2.07 1.035-2.07 2.565s.855 2.565 2.07 2.565c1.215 0 2.07-1.035 2.07-2.565ZM20.055 49h-.8v-1.683H16.13v-.675l2.835-4.104h1.098v4.059h1.251v.72h-1.26V49Zm-3.042-2.403h2.232v-3.231l-2.232 3.231Zm5.864-.603-.792-.135.28-3.321h3.518v.756H23.03l-.17 1.953c.278-.279.72-.504 1.286-.504 1.26 0 2.088.936 2.088 2.16 0 1.224-.963 2.196-2.259 2.196-1.215 0-2.097-.684-2.322-1.908l.828-.171c.135.828.693 1.359 1.494 1.359.82 0 1.45-.63 1.45-1.458 0-.819-.559-1.476-1.378-1.476-.54 0-.954.243-1.17.549Zm3.964-.225c0-1.971.927-3.33 2.466-3.33 1.53 0 2.457 1.359 2.457 3.33s-.927 3.33-2.457 3.33c-1.539 0-2.466-1.359-2.466-3.33Zm.864 0c0 1.512.549 2.574 1.602 2.574 1.044 0 1.602-1.062 1.602-2.574 0-1.512-.558-2.574-1.602-2.574-1.053 0-1.602 1.062-1.602 2.574Zm4.743 0c0-1.971.927-3.33 2.466-3.33 1.53 0 2.457 1.359 2.457 3.33s-.927 3.33-2.457 3.33c-1.539 0-2.466-1.359-2.466-3.33Zm.864 0c0 1.512.55 2.574 1.602 2.574 1.044 0 1.602-1.062 1.602-2.574 0-1.512-.558-2.574-1.602-2.574-1.053 0-1.602 1.062-1.602 2.574Zm6.294-3.267h.648V49h-.864v-4.752h-1.557v-.639l.693-.045c.765-.054 1.017-.315 1.08-1.062ZM5.04 55.538h.864V62H5.04v-2.961H1.575V62H.711v-6.462h.864v2.745H5.04v-2.745Zm4.134 6.561c-1.305 0-2.205-.999-2.205-2.448 0-1.404.891-2.448 2.17-2.448 1.313 0 2.006.999 2.006 2.304v.27H7.743c.045.99.612 1.62 1.431 1.62.63 0 1.08-.342 1.224-.9l.711.252c-.288.837-.999 1.35-1.935 1.35Zm-.045-4.203c-.684 0-1.197.459-1.34 1.26h2.537c-.018-.666-.378-1.26-1.197-1.26Zm4.256 4.185c-.855 0-1.548-.504-1.548-1.35 0-.936.73-1.323 1.782-1.539l1.143-.234v-.198c0-.54-.297-.846-.927-.846-.594 0-.945.279-1.089.801l-.765-.198c.225-.765.918-1.314 1.881-1.314 1.053 0 1.701.513 1.701 1.521v2.295c0 .306.19.405.504.333V62c-.72.09-1.134-.081-1.233-.531-.288.369-.81.612-1.449.612Zm1.377-1.683v-.81l-.918.198c-.72.144-1.206.342-1.206.909 0 .459.333.729.846.729.693 0 1.278-.423 1.278-1.026Zm2.992-4.86V62h-.81v-6.462h.81Zm1.478 5.337v-2.889h-.73v-.693h.73v-1.377h.8v1.377h1.072v.693h-1.071v2.763c0 .495.243.585.657.585.189 0 .324-.009.513-.054v.693a3.327 3.327 0 0 1-.711.072c-.801 0-1.26-.27-1.26-1.17ZM22.164 62v-6.462h.81v2.394c.27-.387.738-.729 1.404-.729 1 0 1.566.693 1.566 1.692V62h-.81v-2.889c0-.657-.279-1.152-.98-1.152-.586 0-1.18.45-1.18 1.233V62h-.81Zm9.04-6.525c.324 0 .6.057.828.171.234.108.414.264.54.468.126.204.189.453.189.747 0 .378-.123.699-.37.963a3.82 3.82 0 0 1-.917.72l1.737 1.674c.156-.186.282-.399.378-.639.102-.246.186-.51.252-.792h.8a6.795 6.795 0 0 1-.36 1.071c-.143.33-.33.618-.557.864L35.038 62h-1.071l-.783-.756a5.036 5.036 0 0 1-.45.351c-.15.102-.315.189-.495.261a3.332 3.332 0 0 1-1.27.234c-.413 0-.773-.066-1.08-.198a1.606 1.606 0 0 1-.701-.603c-.162-.264-.243-.585-.243-.963 0-.306.054-.57.162-.792.114-.222.276-.42.486-.594a5.27 5.27 0 0 1 .738-.504 9.218 9.218 0 0 1-.37-.45 2.367 2.367 0 0 1-.296-.504 1.543 1.543 0 0 1-.117-.603c0-.294.066-.546.198-.756.132-.21.32-.369.567-.477.252-.114.549-.171.89-.171Zm-.396 3.456a3.926 3.926 0 0 0-.558.387c-.15.126-.267.267-.351.423a1.161 1.161 0 0 0-.126.558c0 .33.11.594.333.792.222.198.519.297.89.297.385 0 .715-.063.99-.189.277-.126.508-.276.694-.45l-1.872-1.818Zm.369-2.808c-.252 0-.46.066-.621.198-.156.132-.234.315-.234.549 0 .216.057.417.17.603.115.18.28.381.496.603.354-.204.606-.396.756-.576a.966.966 0 0 0 .234-.639.703.703 0 0 0-.216-.531c-.144-.138-.34-.207-.585-.207Zm5.817 4.545.675-.54c.405.774 1.134 1.224 1.971 1.224.837 0 1.485-.414 1.485-1.152 0-.783-.747-.918-1.728-1.152-1.017-.243-2.025-.522-2.025-1.737 0-1.134.981-1.872 2.205-1.872 1.125 0 1.935.54 2.322 1.269l-.657.522c-.333-.621-.846-1.044-1.683-1.044-.783 0-1.35.432-1.35 1.053 0 .684.603.828 1.512 1.044 1.071.252 2.25.477 2.25 1.845 0 1.206-1.071 1.971-2.349 1.971-1.116 0-2.187-.558-2.628-1.431Zm7.162 1.413c-.855 0-1.548-.504-1.548-1.35 0-.936.729-1.323 1.782-1.539l1.143-.234v-.198c0-.54-.297-.846-.927-.846-.594 0-.945.279-1.09.801l-.764-.198c.225-.765.918-1.314 1.88-1.314 1.054 0 1.702.513 1.702 1.521v2.295c0 .306.189.405.504.333V62c-.72.09-1.134-.081-1.233-.531-.288.369-.81.612-1.45.612Zm1.377-1.683v-.81l-.918.198c-.72.144-1.206.342-1.206.909 0 .459.333.729.846.729.693 0 1.278-.423 1.278-1.026Zm4.233-4.941v.72c-.135-.018-.216-.018-.35-.018-.478 0-.739.207-.739.81v.324h1.044v.693h-1.044V62h-.81v-4.014h-.71v-.693h.71v-.378c0-.918.504-1.476 1.467-1.476.162 0 .252.009.432.018Zm2.563 6.642c-1.306 0-2.206-.999-2.206-2.448 0-1.404.892-2.448 2.17-2.448 1.313 0 2.007.999 2.007 2.304v.27h-3.402c.044.99.611 1.62 1.43 1.62.63 0 1.08-.342 1.224-.9l.712.252c-.289.837-1 1.35-1.936 1.35Zm-.046-4.203c-.684 0-1.197.459-1.34 1.26h2.538c-.019-.666-.379-1.26-1.198-1.26Zm3.15 2.979v-2.889h-.728v-.693h.729v-1.377h.8v1.377h1.072v.693h-1.071v2.763c0 .495.243.585.657.585.189 0 .324-.009.513-.054v.693a3.327 3.327 0 0 1-.711.072c-.801 0-1.26-.27-1.26-1.17Zm4.662 1.638c-.27.711-.64 1.161-1.458 1.161-.198 0-.297-.009-.441-.036v-.702c.153.036.252.045.387.045.35 0 .54-.126.729-.594l.225-.558-1.746-4.536h.855l1.323 3.6 1.305-3.6h.846l-2.025 5.22Z"/></svg>