<svg xmlns="http://www.w3.org/2000/svg" viewBox="0 0 129 56"><path fill="currentColor" d="M116.147 25.493h1.753v-.882c0-1.82-1.366-3.218-3.377-3.218-2.01 0-3.394 1.379-3.394 3.199v.46c0 4.36 5.186 2.513 5.186 5.703v.497c0 .637-.34 1.226-.894 1.545-.554.318-1.236.318-1.79 0-.553-.319-.894-.908-.894-1.545v-1.117h-1.773v1.092c0 1.932 1.44 3.383 3.562 3.383s3.581-1.465 3.581-3.383v-.46c0-4.565-5.197-2.89-5.197-5.715v-.477c0-.974.591-1.636 1.624-1.636 1.034 0 1.624.662 1.624 1.636l-.01.918zm-12.32 4.414h1.623l1.661-3.956h.036v8.313h1.773V21.736h-1.773l-2.52 5.61-2.48-5.61h-1.773v12.545h1.772v-8.327h.037l1.643 3.953zM96.28 31.34c0 .925-.752 1.675-1.68 1.675-.928 0-1.68-.75-1.68-1.675v-9.605h-1.773v9.583c0 1.82 1.44 3.291 3.45 3.291 2.01 0 3.45-1.471 3.45-3.291v-9.583h-1.773l.006 9.605zm-11.439 1.38v-3.937h3.82v-1.543h-3.814v-3.972h4.502v-1.533h-6.272v12.545h6.272v-1.547l-4.508-.014zm-5.751-7.228h1.753v-.882c0-1.82-1.367-3.218-3.377-3.218-2.011 0-3.394 1.379-3.394 3.199v.46c0 4.36 5.186 2.513 5.186 5.703v.497c0 .637-.341 1.226-.895 1.545-.554.318-1.236.318-1.79 0-.553-.319-.894-.908-.894-1.545v-1.117h-1.773v1.092c0 1.932 1.44 3.383 3.562 3.383 2.123 0 3.562-1.454 3.562-3.383v-.46c0-4.562-5.183-2.87-5.183-5.704v-.488c0-.974.59-1.636 1.624-1.636 1.033 0 1.624.662 1.624 1.636l-.005.918zm-8.913 5.862c0 .925-.753 1.675-1.68 1.675-.928 0-1.68-.75-1.68-1.675v-9.619h-1.773v9.583c0 1.82 1.44 3.291 3.45 3.291 2.01 0 3.45-1.471 3.45-3.291v-9.583H70.17l.006 9.62zm46.645 8.43c2.123 0 3.506 1.491 3.506 3.367v1.142h-1.773v-1.178c.026-.635-.299-1.232-.846-1.557-.548-.325-1.23-.325-1.776 0-.548.325-.873.922-.847 1.557v6.551c-.026.634.3 1.232.847 1.557.547.324 1.228.324 1.776 0 .547-.325.872-.923.846-1.557v-1.195h1.764l.009 1.178c0 1.879-1.383 3.35-3.506 3.35-2.123 0-3.506-1.474-3.506-3.35v-6.498c0-1.876 1.383-3.367 3.506-3.367zm-59.26-.002c2.142 0 3.562 1.49 3.562 3.422v.681H59.35l-.003-.717c0-.986-.8-1.784-1.789-1.784-.988 0-1.79.798-1.79 1.784v6.445c0 .985.802 1.784 1.79 1.784s1.79-.799 1.79-1.784v-2.409h-1.79v-1.544h3.565v3.908c0 1.932-1.42 3.423-3.562 3.423S54 51.5 54 49.569v-6.364c0-1.932 1.42-3.422 3.562-3.422zm21.012.335v1.543h-4.502v3.975h3.814v1.544h-3.82v3.936l4.508.003v1.543h-6.272V40.118h6.272zm8.171 0v1.543h-4.5v3.975h3.814v1.544h-3.82v3.936l4.506.003v1.543h-6.272V40.118h6.272zm3.873 0l2.859 8.424h.073l-.02-8.424h1.773v12.541l-1.96.003-2.86-8.424h-.072l.02 8.424h-1.773V40.118h1.96zm33.53 0v5.535h3.08v-5.535H129v12.541h-1.773v-5.462h-3.08v5.465h-1.772V40.118h1.772zm-57.346-.014c.852-.022 1.678.296 2.295.882.616.587.972 1.395.99 2.244v1.85c-.007 1.265-.781 2.398-1.957 2.87l1.789 4.71h-1.918l-1.697-4.45h-1.198v4.438h-1.773V40.104zm32.362.01l1.12 8.654h.073l1.12-5.304h1.66l1.12 5.304h.073l1.12-8.653h1.79l-1.938 12.544h-1.792l-1.162-5.83h-.073l-1.162 5.83h-1.79l-1.937-12.544h1.778zm11.943.004v12.541h-1.784l.011-12.541h1.773zM66.802 41.66h-1.696v5.002l1.696.003c.413-.006.805-.178 1.09-.475.284-.298.436-.697.423-1.107v-1.84c.013-.41-.14-.81-.424-1.107-.284-.298-.676-.47-1.089-.476zM55.943 21.736l2.52 5.61 2.52-5.61h1.77v12.542h-1.77v-8.313h-.05l-1.66 3.956h-1.624l-1.67-3.967h-.036v8.327h-1.772V21.736h1.772zM66.562 3c2.103 0 3.598 1.488 3.598 3.475v6.273c0 1.987-1.495 3.458-3.598 3.458-2.103 0-3.599-1.47-3.599-3.458V6.475C62.963 4.491 64.46 3 66.562 3zm-8.922.33c.852-.022 1.678.295 2.294.882.617.587.973 1.394.99 2.244v1.84h.015c-.01 1.263-.784 2.396-1.96 2.869l1.789 4.71H58.85l-1.708-4.45h-1.199v4.45h-1.761V3.328zm15.415 0l1.846 5.15h.112l1.848-5.15h1.918l-2.935 7.137v5.407h-1.772v-5.407L71.137 3.33h1.918zm10.593 0l2.946 12.544h-1.809l-.453-1.954H80.99l-.46 1.954h-1.808L81.705 3.33h1.943zm6.55 0v11h4.17v1.544h-5.943V3.33h1.773zM67.534 4.715c-.59-.366-1.338-.366-1.928 0-.591.365-.923 1.033-.856 1.723v6.345c-.067.69.265 1.358.856 1.723.59.366 1.338.366 1.928 0 .591-.365.923-1.033.856-1.723V6.439c.067-.69-.265-1.358-.856-1.723zm15.17 1.687h-.072l-1.291 5.96h2.638l-1.274-5.96zM57.64 4.876h-1.697v5.002l1.697.003c.412-.007.805-.178 1.09-.476.283-.297.436-.696.422-1.107v-1.84c.014-.41-.139-.81-.423-1.107-.284-.297-.677-.469-1.089-.475zM24.376 24.46h18.532c-.671 10.126-8.597 18.205-18.532 18.898V24.46zm19.01-11.925C38.306 2.597 26.873-2.256 16.244 1.013 5.615 4.283-1.158 14.736.164 25.83c1.323 11.095 10.361 19.644 21.458 20.296V56h2.754v-9.874C36.516 45.404 45.994 35.3 46 23.076c0-.469-.042-.924-.07-1.384H21.622v21.666c-10.399-.724-18.603-9.515-18.603-20.28 0-11.24 8.946-20.34 19.98-20.34 7.78 0 14.488 4.546 17.785 11.156l2.602-1.359z"/></svg>