<?xml version="1.0" encoding="UTF-8"?><svg xmlns="http://www.w3.org/2000/svg" version="1.1" width="288" height="288"><path d="M0 0 C0.45101074 1.03253906 0.90202148 2.06507812 1.36669922 3.12890625 C10.1791722 23.29446412 19.05843473 43.42630079 28.12106323 63.48077393 C33.81063449 76.07608329 39.40296289 88.71085991 44.9375 101.375 C51.14972126 115.58792785 57.46891348 129.74840557 63.875 143.875 C64.6741703 145.63992957 65.47324386 147.40490295 66.2722168 149.16992188 C69.49243354 156.28054489 72.71590097 163.3894217 75.9737854 170.48287964 C76.86559783 172.42836054 77.75249659 174.37598762 78.63720703 176.32470703 C79.67826987 178.6164321 80.72810851 180.90420027 81.78857422 183.18701172 C82.23475098 184.17459473 82.68092773 185.16217773 83.140625 186.1796875 C83.52766602 187.02257324 83.91470703 187.86545898 84.31347656 188.73388672 C85.11148195 191.36798559 84.95547048 192.4495529 84 195 C81.52801691 196.43582943 79.20776131 197.57872161 76.59375 198.6953125 C75.81951691 199.0399202 75.04528381 199.38452789 74.24758911 199.73957825 C71.67104664 200.88218272 69.08575194 202.00341116 66.5 203.125 C64.68219758 203.92649624 62.86498604 204.72933381 61.04833984 205.53344727 C56.30500518 207.62866783 51.55414499 209.70618807 46.80065918 211.77825928 C42.42922852 213.68522279 38.0623315 215.60249163 33.6953125 217.51953125 C28.63331943 219.74110137 23.57086094 221.96156569 18.50585938 224.17626953 C6.29306819 229.52159156 -5.86328581 234.98437471 -18 240.5 C-36.2615182 248.7986207 -54.60837636 256.89084077 -72.98677063 264.92669678 C-84.34819384 269.89765983 -95.67569941 274.94512988 -107 280 C-109.28466288 277.91120711 -110.61791611 276.07125888 -111.85913086 273.24267578 C-112.36377617 272.10680275 -112.36377617 272.10680275 -112.87861633 270.94798279 C-113.23707138 270.12210159 -113.59552643 269.2962204 -113.96484375 268.4453125 C-114.54246712 267.13766685 -114.54246712 267.13766685 -115.13175964 265.80360413 C-116.40673045 262.91350423 -117.67197072 260.01924509 -118.9375 257.125 C-119.83307448 255.09122357 -120.72940798 253.05778122 -121.62646484 251.0246582 C-123.49308704 246.79233525 -125.35641269 242.5585845 -127.21728516 238.32373047 C-131.08228009 229.5333312 -134.98044021 220.75770936 -138.88192749 211.98345947 C-140.13272267 209.17012992 -141.38244527 206.3563256 -142.63208008 203.54248047 C-148.45295644 190.44204288 -154.3320442 177.36851553 -160.22973633 164.30252075 C-166.85432173 149.6185988 -173.35745415 134.88297602 -179.81298828 120.12402344 C-180.16303925 119.32411987 -180.51309021 118.52421631 -180.87374878 117.70007324 C-181.56006649 116.13009305 -182.24509264 114.55954752 -182.92874146 112.98840332 C-184.69210711 108.94460567 -186.48847978 104.9196882 -188.33496094 100.91308594 C-188.7121225 100.08767303 -189.08928406 99.26226013 -189.47787476 98.41183472 C-190.20037808 96.83412337 -190.93067717 95.25995179 -191.66983032 93.68997192 C-194.1118159 88.33544771 -194.1118159 88.33544771 -193 85 C-191.12207031 83.87524414 -191.12207031 83.87524414 -188.578125 82.78515625 C-187.59537598 82.35662354 -186.61262695 81.92809082 -185.60009766 81.48657227 C-184.49456543 81.01662842 -183.3890332 80.54668457 -182.25 80.0625 C-180.44044312 79.2759802 -178.63091549 78.48939186 -176.822052 77.70127869 C-175.47976369 77.11713412 -174.13686275 76.53439578 -172.79342651 75.95289612 C-164.02337784 72.15573656 -155.29743136 68.25922269 -146.5670166 64.37203979 C-143.60346959 63.05291646 -140.63924038 61.73533779 -137.67480469 60.41821289 C-126.16234592 55.30251225 -114.659712 50.16580159 -103.16821289 45.00317383 C-91.18306102 39.62362422 -79.1748944 34.2960138 -67.16815186 28.96487427 C-51.7128154 22.10205714 -36.27027432 15.2111718 -20.84008789 8.29199219 C-19.71557472 7.78808708 -19.71557472 7.78808708 -18.56834412 7.27400208 C-17.19129797 6.65689993 -15.81445666 6.03934035 -14.43788147 5.42118835 C-12.62715667 4.60986645 -10.81362102 3.8048269 -9 3 C-8.35826843 2.712388 -7.71653687 2.424776 -7.05535889 2.12844849 C-2.22950692 0 -2.22950692 0 0 0 Z " fill="#010101" transform="translate(197,5)"/><path d="M0 0 C3.3 0 6.6 0 10 0 C11.65 6.93 13.3 13.86 15 21 C16.32 14.07 17.64 7.14 19 0 C22.63 0 26.26 0 30 0 C30.02464638 5.82071622 30.0428343 11.64140234 30.05493164 17.4621582 C30.05997267 19.44393441 30.06680538 21.42570689 30.07543945 23.4074707 C30.08751515 26.24952109 30.09323045 29.09152247 30.09765625 31.93359375 C30.10281754 32.82525742 30.10797882 33.71692108 30.11329651 34.63560486 C30.11349177 36.75740601 30.0621003 38.8791078 30 41 C29.67 41.33 29.34 41.66 29 42 C27.02 42 25.04 42 23 42 C22.505 29.13 22.505 29.13 22 16 C20.35 24.25 18.7 32.5 17 41 C15.35 40.67 13.7 40.34 12 40 C10.68 33.07 9.36 26.14 8 19 C7.67 26.59 7.34 34.18 7 42 C4.69 42 2.38 42 0 42 C0 28.14 0 14.28 0 0 Z " fill="#F1F1F1" transform="translate(91,104)"/><path d="M0 0 C3.24044458 2.56535196 4.69560167 4.086805 6 8 C6.28688778 12.26612019 6.2777088 16.53782141 6.3125 20.8125 C6.34150391 21.98876953 6.37050781 23.16503906 6.40039062 24.37695312 C6.47957421 35.15201221 6.47957421 35.15201221 2 40 C-1.00473465 42.36086294 -4.26506608 42.42171603 -8.03515625 42.31640625 C-11.24330151 41.79978644 -12.84118317 40.34930067 -15 38 C-17.83233167 32.21281375 -17.36805002 26.37655911 -17.375 20.0625 C-17.39949219 18.89525391 -17.42398438 17.72800781 -17.44921875 16.52539062 C-17.48639382 5.65168202 -17.48639382 5.65168202 -13 1 C-8.88868881 -1.87384723 -4.66208258 -1.3047183 0 0 Z " fill="#F0F0F0" transform="translate(82,104)"/><path d="M0 0 C1.37671875 -0.01933594 1.37671875 -0.01933594 2.78125 -0.0390625 C6.6074244 0.89549159 8.02570594 2.59465902 10.5 5.625 C11.13110352 8.95898438 11.13110352 8.95898438 11.12890625 12.71875 C11.13131821 13.38789429 11.13373016 14.05703857 11.13621521 14.74645996 C11.13523979 16.15508985 11.12191848 17.56375951 11.09692383 18.97216797 C11.06258798 21.11949807 11.07627926 23.26271249 11.09570312 25.41015625 C11.08880411 26.78387155 11.07913119 28.15757631 11.06640625 29.53125 C11.05009155 31.39233398 11.05009155 31.39233398 11.03344727 33.29101562 C10.41055961 37.18399219 9.24091198 38.84533929 6.5 41.625 C3.04260443 43.35369779 -0.71975568 43.11466895 -4.5 42.625 C-7.37029869 40.83106332 -8.99131638 39.64236724 -10.5 36.625 C-10.78155398 32.25521088 -10.81364613 27.88178113 -10.85009766 23.50415039 C-10.86664004 22.04825842 -10.89390836 20.5924471 -10.93212891 19.13696289 C-10.98708123 17.03228877 -11.00879616 14.92951493 -11.0234375 12.82421875 C-11.04325684 11.56440186 -11.06307617 10.30458496 -11.08349609 9.0065918 C-10.01488136 2.81354463 -6.14644398 -0.08632646 0 0 Z " fill="#FBFBFB" transform="translate(78.5,152.375)"/><path d="M0 0 C15 0 15 0 20 3 C22.30055997 6.45083995 22.27010256 7.87175728 22.25 11.9375 C22.25515625 12.97777344 22.2603125 14.01804687 22.265625 15.08984375 C21.89729239 19.12525244 20.84124479 21.15875521 18 24 C18.5053125 25.13179687 19.010625 26.26359375 19.53125 27.4296875 C20.18769289 28.91137289 20.84393237 30.39314841 21.5 31.875 C21.83386719 32.62136719 22.16773438 33.36773437 22.51171875 34.13671875 C22.82753906 34.85214844 23.14335937 35.56757813 23.46875 36.3046875 C23.76201172 36.96452637 24.05527344 37.62436523 24.35742188 38.30419922 C25 40 25 40 25 42 C22.36 42 19.72 42 17 42 C16.51789063 40.85660156 16.03578125 39.71320313 15.5390625 38.53515625 C14.9013878 37.04412275 14.26334805 35.55324534 13.625 34.0625 C13.30789062 33.30775391 12.99078125 32.55300781 12.6640625 31.77539062 C11.17673155 27.67456388 11.17673155 27.67456388 8 25 C8 30.61 8 36.22 8 42 C5.36 42 2.72 42 0 42 C0 28.14 0 14.28 0 0 Z " fill="#F1F1F1" transform="translate(147,104)"/><path d="M0 0 C2.64 0 5.28 0 8 0 C8.33 11.22 8.66 22.44 9 34 C10.65 34.33 12.3 34.66 14 35 C14.33 23.45 14.66 11.9 15 0 C17.31 0 19.62 0 22 0 C22.0990984 5.03534236 22.1715758 10.07011342 22.21972656 15.10620117 C22.23980505 16.81821586 22.26707392 18.53016228 22.30175781 20.24194336 C22.35044401 22.70704008 22.37300573 25.1712279 22.390625 27.63671875 C22.41127014 28.39836838 22.43191528 29.16001801 22.45318604 29.94474792 C22.45475467 33.68491609 22.14053729 35.78097498 20.10058594 38.96020508 C16.60888944 42.35085179 13.95651681 42.33803556 9.2578125 42.28515625 C5.88623144 41.85933373 4.25979257 40.46522826 2 38 C-0.50848986 34.2904623 -0.25689719 30.48568695 -0.1953125 26.171875 C-0.1924826 25.42286926 -0.18965271 24.67386353 -0.18673706 23.90216064 C-0.1755726 21.51794224 -0.15047531 19.13410421 -0.125 16.75 C-0.11496535 15.13021377 -0.10584035 13.51042164 -0.09765625 11.890625 C-0.07564555 7.92693754 -0.04114175 3.96353319 0 0 Z " fill="#F5F5F5" transform="translate(93,153)"/><path d="M0 0 C2.31 0 4.62 0 7 0 C7 5.61 7 11.22 7 17 C9.31 17 11.62 17 14 17 C14 11.39 14 5.78 14 0 C16.64 0 19.28 0 22 0 C22 13.86 22 27.72 22 42 C19.36 42 16.72 42 14 42 C14 35.73 14 29.46 14 23 C11.69 23 9.38 23 7 23 C7 28.94 7 34.88 7 41 C-2.71940706 28.04079058 -1.3223764 15.42898229 0 0 Z " fill="#F5F5F5" transform="translate(42,153)"/><path d="M0 0 C6.6 0 13.2 0 20 0 C20 1.98 20 3.96 20 6 C19 7 19 7 16.49609375 7.09765625 C14.98208984 7.08025391 14.98208984 7.08025391 13.4375 7.0625 C12.42558594 7.05347656 11.41367188 7.04445313 10.37109375 7.03515625 C9.19740234 7.01775391 9.19740234 7.01775391 8 7 C8 10.3 8 13.6 8 17 C10.97 17 13.94 17 17 17 C17 18.98 17 20.96 17 23 C14.03 23 11.06 23 8 23 C8 26.96 8 30.92 8 35 C11.96 35 15.92 35 20 35 C20 37.31 20 39.62 20 42 C13.4 42 6.8 42 0 42 C0 28.14 0 14.28 0 0 Z " fill="#EEEEEE" transform="translate(198,104)"/><path d="M0 0 C6.6 0 13.2 0 20 0 C20 1.98 20 3.96 20 6 C19 7 19 7 16.49609375 7.09765625 C14.98208984 7.08025391 14.98208984 7.08025391 13.4375 7.0625 C12.42558594 7.05347656 11.41367188 7.04445313 10.37109375 7.03515625 C9.19740234 7.01775391 9.19740234 7.01775391 8 7 C8 10.3 8 13.6 8 17 C10.97 17 13.94 17 17 17 C17 18.98 17 20.96 17 23 C14.03 23 11.06 23 8 23 C8 26.96 8 30.92 8 35 C11.96 35 15.92 35 20 35 C20 37.31 20 39.62 20 42 C13.4 42 6.8 42 0 42 C0 28.14 0 14.28 0 0 Z " fill="#EEEEEE" transform="translate(124,104)"/><path d="M0 0 C6.6 0 13.2 0 20 0 C20 1.98 20 3.96 20 6 C19 7 19 7 16.49609375 7.09765625 C14.98208984 7.08025391 14.98208984 7.08025391 13.4375 7.0625 C12.42558594 7.05347656 11.41367188 7.04445312 10.37109375 7.03515625 C9.19740234 7.01775391 9.19740234 7.01775391 8 7 C8 9.97 8 12.94 8 16 C10.97 16 13.94 16 17 16 C17 18.31 17 20.62 17 23 C13.7 23 10.4 23 7 23 C7 26.96 7 30.92 7 35 C11.29 35 15.58 35 20 35 C20 37.31 20 39.62 20 42 C13.4 42 6.8 42 0 42 C0 28.14 0 14.28 0 0 Z " fill="#F1F1F1" transform="translate(144,153)"/><path d="M0 0 C2.25 1.6875 2.25 1.6875 4.25 4.6875 C4.375 7.375 4.375 7.375 4.25 9.6875 C0.875 9.875 0.875 9.875 -2.75 9.6875 C-3.41 8.6975 -4.07 7.7075 -4.75 6.6875 C-5.74 6.6875 -6.73 6.6875 -7.75 6.6875 C-8.20095624 9.45014316 -8.20095624 9.45014316 -7.75 12.6875 C-5.99540478 14.82939717 -4.41895919 16.50359612 -2.375 18.3125 C2.00510917 22.3146302 4.90409324 25.01907641 5.6875 31.0625 C5.10694294 35.8728299 3.63607407 37.30142593 0.25 40.6875 C-2.98977598 42.30738799 -6.2483359 42.25270367 -9.75 41.6875 C-12.55703896 40.34709381 -13.61054551 39.14004539 -15.75 36.6875 C-16.625 32.875 -16.625 32.875 -16.75 29.6875 C-14.44 29.6875 -12.13 29.6875 -9.75 29.6875 C-9.09 31.0075 -8.43 32.3275 -7.75 33.6875 C-6.43 33.6875 -5.11 33.6875 -3.75 33.6875 C-3.39465248 30.85285576 -3.39465248 30.85285576 -3.75 27.6875 C-5.54447516 25.49621789 -5.54447516 25.49621789 -8 23.75 C-13.25799565 19.39455794 -16.28376982 16.06766884 -17.25 9.0625 C-16.65761426 5.06389629 -15.62688828 3.48447472 -12.75 0.6875 C-8.63847711 -2.19056603 -4.46370732 -2.13040577 0 0 Z " fill="#F1F1F1" transform="translate(189.75,104.3125)"/><path d="M0 0 C3.8271837 2.06079122 6.63072705 3.75525387 8 8 C8 8.99 8 9.98 8 11 C5.36 11 2.72 11 0 11 C-0.33 10.01 -0.66 9.02 -1 8 C-2.32 8 -3.64 8 -5 8 C-5.08494533 12.07737565 -4.90146663 14.0501445 -2.03515625 17.0703125 C-0.45862281 18.41432642 1.14389022 19.72859134 2.7734375 21.0078125 C6.3005927 24.16368821 7.8703675 26.79009671 8.375 31.5 C7.96942028 35.28541073 7.37361222 37.05344689 5 40 C2.07104403 42.35943675 0.25318497 42.96835188 -3.5 43.4375 C-7.63857387 42.92017827 -9.15453294 42.00806518 -12 39 C-13.51848927 36.03533048 -14 34.34238213 -14 31 C-11.69 31 -9.38 31 -7 31 C-6.34 32.32 -5.68 33.64 -5 35 C-3.35 35 -1.7 35 0 35 C0.50058566 32.76363405 0.50058566 32.76363405 0 30 C-1.9267371 27.73615656 -3.76572297 25.80678787 -5.9375 23.8125 C-13.14854133 16.99703579 -13.14854133 16.99703579 -13.375 11.1875 C-13.35164663 7.14736752 -13.21063888 6.2716133 -10.625 2.9375 C-6.7938628 0.10975588 -4.78482779 -0.46007959 0 0 Z " fill="#F4F4F4" transform="translate(54,103)"/><path d="M0 0 C2.66539205 1.78073302 3.37973806 3.09470273 5 6 C5 7.32 5 8.64 5 10 C1.625 10.1875 1.625 10.1875 -2 10 C-2.66 9.01 -3.32 8.02 -4 7 C-5.32 7.33 -6.64 7.66 -8 8 C-7.63445871 13.0170542 -5.01457943 15.43407949 -1.5 18.6875 C5.14812703 24.99233584 5.14812703 24.99233584 5.375 30.8125 C5.35730591 34.89393784 5.22217002 35.7208633 2.5625 39.0625 C1.716875 39.701875 0.87125 40.34125 0 41 C-0.33 41.33 -0.66 41.66 -1 42 C-4.05404823 42.44170119 -6.94912144 42.46776673 -10 42 C-13.28208056 39.48606596 -15.56866773 36.90363346 -17 33 C-17 32.01 -17 31.02 -17 30 C-14.36 30 -11.72 30 -9 30 C-8.67 31.65 -8.34 33.3 -8 35 C-5.525 34.505 -5.525 34.505 -3 34 C-2.59721614 31.18939859 -2.59721614 31.18939859 -3 28 C-5.05708791 25.54654974 -5.05708791 25.54654974 -7.8125 23.5 C-12.85072796 19.48686604 -15.57344046 15.98591677 -16.5 9.5 C-16.00025954 6.00181681 -15.28082463 3.72474481 -12.82421875 1.11328125 C-8.86009769 -1.3059361 -4.39827505 -1.00230556 0 0 Z " fill="#F3F3F3" transform="translate(135,153)"/><path d="M0 0 C6.6 0 13.2 0 20 0 C20.66 2.31 21.32 4.62 22 7 C19.69 7 17.38 7 15 7 C15.00523682 8.02472412 15.01047363 9.04944824 15.01586914 10.10522461 C15.03391969 13.89395276 15.0454322 17.68267709 15.05493164 21.47143555 C15.05997174 23.11369464 15.06680378 24.75594923 15.07543945 26.39819336 C15.08751926 28.75375479 15.09323139 31.10925709 15.09765625 33.46484375 C15.10281754 34.20339096 15.10797882 34.94193817 15.11329651 35.7028656 C15.1134925 37.46898088 15.06194719 39.23497146 15 41 C14.505 41.495 14.505 41.495 14 42 C11.69 42 9.38 42 7 42 C7 30.12 7 18.24 7 6 C4.69 6 2.38 6 0 6 C0 4.02 0 2.04 0 0 Z " fill="#EFEFEF" transform="translate(221,104)"/><path d="M0 0 C1.66611905 -0.042721 3.33382885 -0.04063832 5 0 C6.80279191 1.80279191 6.13036605 4.54047701 6.1328125 6.96875 C6.13410156 8.17917969 6.13539062 9.38960937 6.13671875 10.63671875 C6.13285156 11.91160156 6.12898438 13.18648437 6.125 14.5 C6.12886719 15.77488281 6.13273437 17.04976562 6.13671875 18.36328125 C6.13542969 19.57371094 6.13414063 20.78414062 6.1328125 22.03125 C6.13168457 23.15080078 6.13055664 24.27035156 6.12939453 25.42382812 C6 28 6 28 5 29 C2.5 29.125 2.5 29.125 0 29 C-1.76988265 27.23011735 -1.13029068 24.68034582 -1.1328125 22.28515625 C-1.13410156 21.12435547 -1.13539062 19.96355469 -1.13671875 18.76757812 C-1.13091797 16.93356445 -1.13091797 16.93356445 -1.125 15.0625 C-1.13080078 13.23428711 -1.13080078 13.23428711 -1.13671875 11.36914062 C-1.13542969 10.20705078 -1.13414063 9.04496094 -1.1328125 7.84765625 C-1.13168457 6.77523682 -1.13055664 5.70281738 -1.12939453 4.59790039 C-1 2 -1 2 0 0 Z " fill="#040404" transform="translate(74,110)"/><path d="M0 0 C2.97 0.495 2.97 0.495 6 1 C6.02886338 5.47915328 6.04675187 9.95828291 6.0625 14.4375 C6.07087891 15.71689453 6.07925781 16.99628906 6.08789062 18.31445312 C6.09111328 19.52939453 6.09433594 20.74433594 6.09765625 21.99609375 C6.10289307 23.12200928 6.10812988 24.2479248 6.11352539 25.40795898 C6 28 6 28 5 29 C2.5 29.125 2.5 29.125 0 29 C-1.76988265 27.23011735 -1.13029068 24.68034582 -1.1328125 22.28515625 C-1.13410156 21.12435547 -1.13539062 19.96355469 -1.13671875 18.76757812 C-1.13091797 16.93356445 -1.13091797 16.93356445 -1.125 15.0625 C-1.13080078 13.23428711 -1.13080078 13.23428711 -1.13671875 11.36914062 C-1.13542969 10.20705078 -1.13414063 9.04496094 -1.1328125 7.84765625 C-1.13168457 6.77523682 -1.13055664 5.70281738 -1.12939453 4.59790039 C-1 2 -1 2 0 0 Z " fill="#040404" transform="translate(76,159)"/><path d="M0 0 C1.65 0 3.3 0 5 0 C7 2 7 2 7.265625 3.875 C7.26046875 4.57625 7.2553125 5.2775 7.25 6 C7.25515625 6.70125 7.2603125 7.4025 7.265625 8.125 C7 10 7 10 5 12 C3.35 12 1.7 12 0 12 C0 8.04 0 4.08 0 0 Z " fill="#0A0A0A" transform="translate(155,110)"/></svg>