<svg xmlns="http://www.w3.org/2000/svg" viewBox="0 0 229 125"><path fill="currentColor" d="M85.644 82.69c0 3.161-1.625 4.864-4.226 4.864s-4.227-1.703-4.227-4.865V65.338h-5.446v15.567c0 7.784 3.495 11.352 9.673 11.352 6.096 0 9.672-3.649 9.672-11.352V65.338h-5.446v17.351Zm-31.131-6.974L52.887 80.5l-1.463-4.784-4.308-10.378h-6.909v26.594h6.34V79.365l.813 3.405 3.333 9.162h4.551l3.333-9.162.813-3.405v12.567h6.259V65.338h-6.91l-4.226 10.378Zm53.159 1.216-3.414-1.459c-2.763-1.135-3.495-2.108-3.495-3.486 0-1.947 1.544-3.163 3.739-3.163 2.764 0 4.146 1.703 4.471 4.46h4.795c-.731-5.352-3.901-8.352-9.103-8.352s-8.698 3.081-8.698 7.135c0 3.163 1.707 5.514 6.503 7.46l2.682 1.054c3.17 1.216 3.983 2.595 3.983 4.46 0 2.108-1.3 3.324-3.739 3.324-2.926 0-4.714-1.784-5.283-5.27h-4.796c.65 6 4.552 9.162 9.998 9.162 5.04 0 8.697-2.92 8.697-7.46.082-3.73-1.788-6-6.34-7.865ZM80.524 49.04H73.94c-.326 3.974-1.22 5.27-3.09 5.27-1.95 0-2.844-1.134-2.844-4.297v-7.216c0-3.162 1.057-4.297 2.845-4.297 1.95 0 2.845 1.297 3.089 5.27h6.584c-.57-7.621-4.227-10.946-9.917-10.946-6.015 0-9.429 3.973-9.429 13.379v.567c0 9.325 3.495 13.379 9.429 13.379 5.69-.163 9.347-3.406 9.916-11.108Zm71.61-14.026c3.414 0 5.609 2.189 6.178 6.972h2.601c-.569-5.837-3.82-9.324-8.86-9.324-5.934 0-9.104 4.54-9.104 11.92v3.404c0 7.541 3.252 11.92 9.104 11.92 5.283 0 8.291-3.487 8.86-9.325h-2.601c-.569 4.946-2.764 7.054-6.178 7.054-4.389 0-6.421-3.405-6.421-9.81v-4.298c0-5.27 2.357-8.514 6.421-8.514ZM48.742 54.31c-2.357 0-3.333-2.19-3.414-4.216H38.5c.325 6.08 4.796 9.892 10.323 9.892 4.958 0 8.941-3.163 8.941-7.947 0-3.891-2.195-6-8.372-8.594-2.845-1.216-3.74-2.108-3.74-3.243 0-1.217 1.139-1.946 2.114-1.946 2.114 0 2.764 1.621 3.09 3.243h6.746c-.65-5.351-4.39-8.919-9.592-8.919-4.958 0-9.266 2.919-9.266 7.784 0 3.324 2.113 5.919 7.072 8.027 4.145 1.703 4.877 2.594 4.877 3.81.243 1.541-.895 2.109-1.951 2.109Zm64.864 1.46h-11.624v-7.622h10.974v-3.973h-10.974V37.04h11.624v-3.972H97.512v26.594h16.094V55.77Zm-27.88-22.703h5.364v26.594h-5.364V33.068Zm96.321 24.973h-13.575V46.85h12.843V45.23h-12.843V34.77h13.575v-1.703h-15.363v26.595h15.363v-1.621Zm5.852 7.297-9.429 24.486-9.429-24.486h-2.357v26.594h1.788V68.905l8.86 23.027h2.195l9.022-23.027v23.027h1.707V65.338h-2.357Zm-30.075 16.865c0 5.351-2.682 7.702-6.909 7.702s-6.909-2.351-6.909-7.702V65.338h-2.601v15.81c0 7.947 3.658 11.19 9.429 11.19 5.771 0 9.591-3.243 9.591-11.19v-15.81h-2.601v16.865Zm-38.61 9.73h16.582v-3.244h-13.005v-8.757h12.192V76.69h-12.192v-8.108h13.005v-3.243h-16.582v26.594Zm14.713-38.676-1.22-2.757-9.672-17.432h-3.821v26.594h3.577V39.311l1.219 3 9.754 17.351h3.82V33.068h-3.657v20.189Z"/></svg>