<svg xmlns="http://www.w3.org/2000/svg" viewBox="0 0 229 125"><path fill="currentColor" d="M47.081 60.866c5.347 0 8.02-2.578 8.02-6.188s-2.198-5.347-6.324-5.89l-2.266-.298c-2.022-.271-3.094-.896-3.094-2.144 0-1.194 1.208-1.818 3.311-1.818 2.063 0 3.718.57 3.827 2.497h4.247v-.407c-.203-3.61-2.971-5.944-8.128-5.944s-7.721 2.442-7.721 5.835c0 3.392 2.212 5.387 6.242 5.916l2.266.299c2.212.285 3.175.868 3.175 2.198 0 1.303-1.22 2.09-3.582 2.09-2.348 0-4.07-.72-4.234-2.633h-4.3v.408c.054 3.636 3.216 6.079 8.562 6.079Zm20.704 23.131h4.427v-7.816h7.297v7.816h4.426v-19.54H79.51v7.816h-7.297v-7.816h-4.428l.001 19.54Zm-.69-23.097c.234 0 .463-.005.69-.016V56.81c-.224.02-.453.03-.69.03-3.467 0-5.57-2.232-5.57-6.062s2.103-6.063 5.57-6.063c3.468 0 5.57 2.233 5.57 6.063 0 .707-.071 1.36-.21 1.955h4.553c.086-.622.13-1.274.13-1.955 0-6.28-3.71-10.123-10.042-10.123-6.333 0-10.042 3.843-10.042 10.123 0 6.28 3.709 10.123 10.042 10.123Zm29.258 23.444c6.333 0 10.042-3.844 10.042-10.123 0-6.28-3.709-10.124-10.042-10.124-.235 0-.466.006-.694.016v4.076a7.46 7.46 0 0 1 .694-.032c3.468 0 5.57 2.233 5.57 6.064 0 3.83-2.102 6.063-5.57 6.063-3.468 0-5.57-2.233-5.57-6.063 0-.705.071-1.356.209-1.949H86.44c-.085.62-.129 1.27-.129 1.949 0 6.279 3.71 10.123 10.042 10.123Zm39.415-.027c5.347 0 8.02-2.578 8.02-6.188s-2.198-5.265-6.323-5.808l-.419-.049h-8.989c.816 2.025 2.813 3.277 5.825 3.673l2.266.298c2.212.285 3.176.8 3.176 2.13 0 1.303-1.222 2.09-3.583 2.09-2.347 0-4.071-.719-4.234-2.632h-4.301v.407c.054 3.637 3.216 6.08 8.562 6.08Zm10.325-.32h14.221v-3.908h-9.798V76.18h8.387v-3.908h-8.387v-3.908h9.472v-3.908h-13.895v19.54Zm11.724-23.449h14.221V56.64h-9.797v-3.908h8.386v-3.908h-8.386v-3.908h9.472v-3.908h-13.896v19.54Zm-78.308 0h4.426l.001-11.01h.217l4.332 11.01h4.02l4.327-11.006h.217v11.006h4.427v-19.54h-5.554L90.63 54.495h-.217l-5.282-13.489H79.51v19.541Zm100.459.004h4.427V44.916h6.084v-3.909h-16.596v3.909h6.085v15.636Zm-59.074-.004h4.428v-7.817h.488l5.99 7.817h5.246v-.407l-5.858-7.423c3.491-.136 5.867-2.253 5.867-5.849 0-3.732-2.539-5.862-6.247-5.862h-9.914v19.541Zm4.428-11.724v-3.908h5.079c1.493 0 2.336.65 2.336 1.954 0 1.302-.843 1.954-2.336 1.954h-5.079Zm0 27.71V64.455h-4.428v11.887c0 1.65-.631 2.978-2.19 3.503v4.38c4.545-.556 6.618-3.48 6.618-7.693m-20.826-23.801h12.81v-3.908h-8.386v-3.908h9.471v-3.909h-13.895v11.725Zm4.277 23.453h4.427V64.456h-4.427v11.729Zm4.427-15.637h5.517V56.64H113.2v3.908Zm23.846 7.587c1.247.276 2.119.96 2.196 2.34h4.248v-.406c-.18-3.195-2.369-5.39-6.444-5.853v3.919Zm1.809-13.348c.05 3.325 2.697 5.652 7.238 6.026v-3.887c-1.664-.24-2.805-1.007-2.936-2.547h-4.302v.408Zm.434-8.278c0 3.392 2.212 5.387 6.243 5.916l2.266.299.059.008h7.319c-.695-2.31-2.762-3.51-6.062-3.943l-2.266-.299c-2.022-.271-3.094-.896-3.094-2.144 0-1.194 1.208-1.818 3.311-1.818 2.063 0 3.718.57 3.827 2.497h4.247v-.407c-.204-3.61-2.972-5.944-8.128-5.944-5.157 0-7.722 2.442-7.722 5.835Z"/></svg>