<svg xmlns="http://www.w3.org/2000/svg" fill="none" viewBox="0 0 228 125"><g fill="currentColor" fill-rule="evenodd" clip-path="url(#a)" clip-rule="evenodd"><path d="M60.19 74.1c-.011 1.122-.205 1.763-.468 2.271-.099.19-.178.2-.174.077l.02-.991.114-6.525c.036-2.125-.374-2.938-.462-3.257-.03-.113.014-.143.139.004.444.523.969 1.776.95 3.179l-.118 5.241Zm-3.35 8.623c-.18.206-.284.162-.147-.06.683-1.065 1.046-1.705 1.192-2.58.044-.216-.006-.356-.191-.267-.693.327-1.833.508-2.402.537-.182.008-.195-.095 0-.143 2.1-.357 3.109-1.42 3.597-2.048 0 .78-.384 2.686-2.048 4.561Zm18.164-1.14a16.492 16.492 0 0 0-1.644-.644 9.726 9.726 0 0 0-1.453-.346c-1.262-.258-2.567-.391-3.898-.566-.97-.127-4.57-.411-5.533-3.005-.492-1.328-.35-4.092-.447-6.745-.13-3.596.12-5.149 1.608-6.646 2.73-2.75 5.903-2.955 6.846-3.109.262-.041.254-.31-.048-.325-.793-.034-1.846.063-3.243.477-.1.03-.196-.032-.202-.137-.19-2.572.745-4.598 2.24-6.231.121-.132.2-.124.346-.12.962.032 2.045-.137 2.937-.587.176-.088.11-.321-.119-.257-1.275.477-2.171.353-2.516.334 1.174-1.14 2.665-1.763 3.184-1.957.308-.116.189-.41-.093-.316a11.128 11.128 0 0 0-4.744 3.09l-.693-1.013c-.1-.142-.131-.27-.023-.405.439-.548 1.204-2.664 1.205-4.248 0-.322-.31-.359-.32-.039-.113 1.772-1.06 3.26-1.315 3.614-.476-1.478-.281-2.481-.31-2.668-.036-.242-.24-.217-.305-.045a1.58 1.58 0 0 0-.067.354 9.036 9.036 0 0 1-3.078-2.92c-.13-.195-.336-.072-.254.12.165.383.875 1.914 3.17 3.41a.192.192 0 0 1 .088.151 8.352 8.352 0 0 0 1.429 4.209.132.132 0 0 1-.002.15c-1.447 2.11-1.59 4.41-1.528 5.744a.194.194 0 0 1-.126.186c-3.058 1.231-4.359 2.438-5.615 4.06-2.546-3.05-3.596-3.139-5.396-6.465-.038-.07-.099-.133.006-.215 1.63-1.293 2.217-3.267 2.537-4.241.057-.175-.17-.261-.262-.096-.326.591-.814 2.262-2.694 3.695-.243-.41-1.007-2.251-1.332-4.221-.042-.262.044-.213.394-.501 1.544-1.28 2.049-2.992 2.24-3.736.06-.237-.188-.298-.267-.074-.734 1.976-2.165 2.984-2.464 3.162-.143-1.573.168-2.399.24-2.733.038-.182-.181-.244-.248-.082-.47 1.153-.721 2.806-.381 5.306l.178 1.09c-2.236-.727-4.344-2.862-5.133-4.77-.096-.231-.398-.146-.354.091.11.58 1.754 4.155 5.509 5.475.222.078.26.128.312.286.274.82.528 1.55 1.028 2.609-.806-.277-1.6-.837-1.99-1.09-.208-.136-.374.025-.213.216.162.19 1.086 1.19 2.605 1.85.27.069.482.455.697.767-.771.018-2.291-.192-4.14-.718l-.16-.118c-.576-.903-.948-1.843-1.95-2.561-.197-.141-.373.038-.197.202.62.574 1.041 1.279 1.345 2.061.045.114.023.135-.055.102l-1.78-.722c-.195-.02-.232.16-.105.26.15.123 1.634.857 2.234 1.12 3.667 1.605 5.233.757 6.99 3.008 1.288 1.655 1.445 2.587 1.362 6.142-.017.7-.004 5.46-.407 6.651-.453 1.347-1.704 2.55-4.62 2.995-1.754.27-4.294.462-6.284 1.067-.572.174-1.124.414-1.685.627-.223.085-.16.308.081.258.494-.104 1.335-.513 2.141-.549.172-.007.185.033.118.139-.399.635-.876 1.098-1.486 1.436-.252.14-.153.329.072.242.326-.123 1.217-.593 2.028-1.61.387-.488 1.378-.6 1.844-.525.318.05.407.207.252.487-.122.22-.274.393-.443.575-1.117 1.208-2.618 1.455-3.23 1.653-.292.093-.27.28.053.255.382-.028 1.13-.246 1.713-.379.183-.041.257.041.22.225-.14.669-1.103 1.364-1.212 1.469-.203.192-.075.32.171.193.263-.133 1.086-.693 1.707-1.854.212-.398.517-.745.87-1.024l1.567-1.257c.233-.192.499-.334.795-.41.554-.14.393.554.122 1.109-.6 1.22-1.343 1.72-2.688 2.614l-1.596 1.174c-.205.165-.087.348.143.233.317-.154.866-.777 2.384-1.243.101-.032.194 0 .17.105-.013.07-.04.139-.066.206-.26.667-1.252 3.536-.736 3.5.15-.01.164-.427.271-.803.6-2.097 1.546-3.585 2.255-4.381 1.057-1.187 1.406-2.174 1.894-2.299l1.306-.36c.169-.038.202-.002.147.157l-.43 1.189c-1.034 2.358-2.633 4.113-4.444 5.586-.255.207-.106.388.145.233.381-.227.744-.483 1.086-.766.463-.381.648-.447.817-.508.178-.067.223-.033.252.151.109.633.153 1.276.133 1.918-.027.719-.18 1.018-.215 1.216-.06.332.168.392.273.066.159-.472.486-1.538.465-3.126a2.616 2.616 0 0 1 .597-1.722l.9-1.095 1.004-1.384c.056-.073.112-.048.102.04-.022.213-.127.698-.172.99-.209 1.325-.362 1.314-.877 2.423-.553 1.184-1.031 2.76-1.137 3.757-.034.332.19.343.26.06.223-.883.57-2.121 1.522-3.549.041-.058.147-.066.178.038.621 2.09.16 3.636-.022 4.352-.08.317.135.417.285.057.077-.186.773-1.617.392-4.312-.149-1.06.114-4.224.828-5.079.276-.33.433-.333.623.055.671 1.371-.114 3.762-.439 6.04-.288 2.011-.154 3.193.02 4.07.062.319.305.28.284-.059-.061-1.032-.2-1.672.209-3.973.19-1.076.463-2.214.774-2.788.1-.184.202-.233.303-.01.544 1.185.69 1.65.976 3.36.206 1.225.159 1.899.09 2.6-.045.43.255.449.312 0 .148-.906.205-1.716.01-3.124-.1-.755-.255-1.501-.465-2.233-.275-.933-.423-1.905-.366-2.877.02-.357.082-.707.252-1.028.161-.302.548-.364.785-.015s.56.814.765 1.902c.202 1.068.267 1.874.02 3.58-.323 2.226.242 3.634.44 4.028.113.227.306.157.253-.096-.132-.628-.691-1.902.026-4.478.029-.105.119-.103.18-.02.859 1.116 1.086 2.34 1.25 2.833.078.228.248.191.242-.01-.033-1.339-.809-2.968-1.219-3.77-.242-.46-.399-.96-.461-1.477l-.214-1.308c-.106-.576.027-.586.267-.137 1.312 2.443 2.312 2.652 2.32 4.148.005.637.044 1.272.151 1.901.08.47.174.936.376 1.373.122.266.343.192.26-.087-.24-.825-.305-2.001-.131-3.115.023-.146.127-.165.227-.095.224.156.549.45 1.701 1.111.26.151.402-.036.166-.234-.76-.642-1.864-1.288-3.668-4.12-.617-.971-1.028-1.74-1.237-2.423-.075-.258.046-.378.357-.264 1.056.385 3.08 2.216 4.55 4.546.5.792.604 1.222.829 2.23.052.234.26.205.264-.036.018-.765-.367-1.805-.644-2.522-.037-.1.023-.163.115-.136.89.272 1.563.66 2.27 1.201.343.264.542-.018.181-.274l-2.242-1.592a5.799 5.799 0 0 1-1.75-1.715c-.242-.374-.43-.772-.446-1.228-.023-.642.788-.169 1.168.15.608.509 1.322.84 1.919 1.362.189.168.331.389.45.611.693 1.31 1.156 1.612 1.718 2.041.237.195.397-.047.16-.229-.475-.368-1.041-1.032-1.137-1.466-.028-.13.01-.244.224-.2.487.1 1.516.447 2.254.63.282.068.37-.188.084-.286-.575-.192-1.611-.462-2.84-1.175-.933-.54-1.38-1.004-1.467-1.205-.108-.24-.074-.458.511-.482.29-.012.707.04 1.247.248.143.054.158.064.213.137.548.722 1.47 1.3 1.937 1.499.253.107.363-.12.112-.257-.548-.3-.96-.7-1.272-1.135-.063-.09-.022-.14.086-.13a7.778 7.778 0 0 1 1.878.454c.196.073.37.145.464.08.078-.054.054-.185-.121-.26Z" style="fill:currentColor"/><path d="M68.457 41.843c.415-.163.834-.484 1.158-.911.89-1.174 1.124-2.506.911-3.94-.026-.168-.082-.21-.198-.075l-1.184 1.369c-1.099 1.21-1.185 2.364-.929 3.456.023.101.107.155.242.103m-4.691-1.34c1.062-1.044.52-2.309.23-3.496-.014-.059-.057-.074-.09-.014-.409.738-.666 1.466-.658 2.236.007.417.186 1.6.518 1.274ZM77.65 58.55c-2.181-.475-3.276.303-3.68 1.183-.032.07-.013.11.04.137.336.176 1.629.563 3.64-1.17.074-.065.08-.132 0-.15Zm-7.875-6.248c1.076-.736 1.158-2.203 1.357-3.113.025-.117-.036-.136-.108-.106a3.524 3.524 0 0 0-2.034 2.736c-.08.914.037.992.785.483Zm7.443-8.455c-1.971 1.2-2.038 3.02-1.78 3.547.034.069.086.1.176.053.838-.435 1.27-.992 1.48-1.982.1-.468.149-.985.242-1.548.016-.099-.045-.114-.118-.07Zm-22.998-3.52a2.51 2.51 0 0 0 1.495-1.807l.287-1.707c.02-.126-.037-.151-.161-.076-1.542.942-2.098 2.448-1.733 3.546.014.042.056.063.113.044ZM49.095 55.35c.197.817.452 2.003 1.457 2.742.668.49 1.41.384 1.179-.518-.318-1.232-1.797-1.515-2.497-2.317-.11-.126-.18-.074-.14.093m-1.508-14.422c1.427 1.496 1.282 1.965 2.323 2.72.681.494 1.75.82 1.301-.46-.487-1.387-2.125-2.234-3.586-2.341-.057-.004-.082.034-.037.082m7.504 15.496c.178-.064.394-.245.619-.597.832-1.3.537-2.468.37-4.015-.008-.082-.059-.096-.099-.032-.401.65-1.548 2.028-1.407 3.948.04.532.167.822.517.696Zm-10.377 4.497c1.792 1.825 3.966 1.87 5.056 1.305.364-.188.298-.351.178-.533-.33-.5-1.523-1.262-3.04-1.118l-2.176.215c-.077.007-.078.069-.018.13Zm22.518 1.77c.028.529 1.224 1.085 1.967 1.155.951.09 1.84-.121 2.711-.578.039-.02.056-.08-.02-.096a7.56 7.56 0 0 1-1.622-.573c-1.254-.586-3.07-.535-3.036.094m-11.355 1.198c.525-.902-.666-.968-1.68-.422-.932.503-1.596 1.277-2.144 2.165-.036.058.004.115.07.099l1.83-.467c.611-.178 1.451-.563 1.924-1.375Zm-10.79-10.006c.287 1.7 1.306 3.471 2.839 3.836.938.223.772-1.279-1.284-2.76-.508-.365-1.035-.65-1.464-1.113-.055-.06-.096-.033-.09.037Zm23.487 11.523c-.42-.581-.805-1.19-1.34-1.678-1.148-1.043-1.942-.812-2.21-.43-.384.546.45 1.434 1.276 1.833.678.33 1.482.416 2.234.35.043-.004.069-.037.04-.075ZM62.949 46.29c-.005-.576-.566-1.677-1.804-2.77-.333-.293-.62-.64-.928-.962-.09-.096-.13-.096-.15-.013-.33 1.412.477 3.376 1.914 3.987.923.392.97-.073.968-.242Zm-2.38 7.348c-.005-.051-.046-.07-.091.005-.333.55-.782.99-1.285 1.378-.801.62-1.688 1.26-2.112 2.324-.186.467.01.563.463.482 1.844-.295 3.14-2.3 3.024-4.19Zm-16.361-12.53c.01.223.178.818.558 1.437.938 1.531 2.183 1.83 2.796 1.777.06-.44-.294-1.788-1.653-2.464l-1.566-.81c-.09-.054-.14-.04-.135.06Zm-2.89 6.29c.511 2.237 2.08 3.074 3.151 3.11.175.006.205-.066.18-.202-.182-1.032-.721-1.8-1.664-2.271l-1.519-.762c-.141-.071-.185-.036-.148.125Zm24.063-9.031c-.195 1.792.722 1.949 1.206 1.249.495-.715 1.169-2.526-.228-4.519-.068-.096-.159-.069-.171.056-.134 1.337-.668 1.929-.807 3.214Zm-7.93 7.34c.055-.106 0-.14-.075-.108-1.714.735-2.752 1.056-3.432 2.127-1.305 2.059 1.228 1.948 2.45-.102l1.057-1.917Zm-13.163 1.346c-.126-.064-.13.024-.106.077.873 2.029 1.011 2.69 2.008 3.323 1.836 1.167 1.846-1.252.012-2.345l-1.73-.949-.184-.106ZM53.267 62.6c-.425-.284-1.403-.4-2.943.144-.727.256-1.453.514-2.24.508-.08 0-.102.055-.037.1.4.289 1.527.735 2.69.748 1.909.023 3.382-.933 2.53-1.5m-9.558-6.125c.066.299 1.022 3.063 4.084 3.33.183.014.207-.1.13-.305-.2-.526-.838-1.642-2.57-2.217-.856-.284-1.229-.618-1.554-.854-.057-.042-.104-.013-.09.046Zm23.168-7.353c.451.167 1.037.21.573-.81-.444-.981-1.257-1.55-2.02-1.917-.466-.226-.916-.374-1.247-.493-.083-.029-.114.036-.083.09l.747 1.282c.398.742 1.056 1.486 2.03 1.848Zm2.495-2.932c.03-1.183-.343-2.258-.913-3.273-.045-.08-.123-.106-.148.008-.068.299-.392 1.372-.52 1.748-.242.702-.47 2.011.151 2.979.604.937 1.386.177 1.43-1.462Zm-17.325 6.812c-.188-1.117-.784-1.858-1.89-3.44-.055-.08-.124-.072-.147.028a5.87 5.87 0 0 0-.111 2.267c.207 1.406.92 2.368 1.657 2.72.403.19.633-.725.49-1.575Zm-2.509-16.024a4.557 4.557 0 0 0 .277 2.329c1.13 2.92 3.224 3.305 2.587 1.098-.391-1.352-1.673-3.006-2.803-3.463a.046.046 0 0 0-.054.017.046.046 0 0 0-.007.019Zm2.424 9.709c.287 1.051.888 1.908 1.505.65.28-.569.445-1.578-.057-3.023a11.305 11.305 0 0 1-.466-1.677c-.01-.048-.048-.054-.074-.003-.266.512-1.36 2.394-.908 4.053Zm17.712-3.161c-.069.535.287.602.882.425.572-.168 1.429-.64 2.103-1.91.323-.612.48-.957.822-1.437.028-.037.006-.067-.046-.054-.93.253-1.75.618-2.509 1.222-.822.653-1.196 1.315-1.252 1.754Zm-22.49 9.992c1.16-.362-.254-2.137-2.817-2.288-.75-.045-1.16-.042-1.788-.165-.05-.01-.068.025-.031.069.671.81 1.4 1.458 2.34 1.938 1.018.52 1.837.59 2.297.446Zm26.329-2.966c-.336 1.316 2.242.673 3.6-1.27.452-.65.678-1.02 1.134-1.518.036-.04.015-.075-.045-.067-1.092.157-2.074.456-3.022 1.036-1.026.628-1.541 1.328-1.667 1.82Zm2.828 4.41c-.02.01-.035.022-.065.041-1.224.833-3.511 1.212-4.416 3.875-.143.417 0 .593.447.457a4.977 4.977 0 0 0 2.69-1.913c.513-.725 1.04-1.81 1.404-2.416.014-.022-.014-.069-.06-.044Zm2.204-3.335c-2.081-.412-4.273-.009-5.387 1.328-.267.32-.144.599.343.705.98.214 3.056-.14 5.086-1.904.047-.041.041-.113-.042-.13ZM58.799 34.74c-1.677 1.628-1.902 4.064-1.094 5.212.08.112.14.08.226 0 .924-.828 1.384-1.846 1.27-3.105l-.19-2.074c-.01-.122-.055-.184-.212-.033Zm16.693 26.672-2.097-.629c-1.2-.354-2.275-.09-3.257.659-.085.063-.11.14-.03.215 1.198 1.144 3.43 1.226 5.376-.115.071-.048.082-.11.008-.13ZM61.92 47.497c-.872-.611-1.837-.909-2.94-.811-.063.005-.073.07-.011.104a4.92 4.92 0 0 1 1.274 1.049c.875.988 1.603 2.108 2.643 2.525 1.549.623.84-1.603-.966-2.869m6.295-5.753c.023.101.107.155.242.103.415-.165.834-.486 1.158-.913m-9.041.346c.78-.498 1.86-2.01 2.223-4.162.047-.27.007-.343-.193-.222-1.222.729-2.879 1.375-3.163 3.603-.13 1.016.486 1.193 1.133.78Zm8.77 18.256c.723-.502 1.22-1.28 1.704-2.462.424-1.04 1.002-1.922 1.925-2.588.014-.01.05-.035.034-.059-.007-.013-.033-.019-.064-.019-2.328.022-4.743 2.37-4.356 4.767.078.48.37.631.758.361Zm-4.125-.339c-.56-1.386-1.735-2.199-3.395-3.56-.073-.06-.105-.039-.106.024-.007.516.18 3.61 2.45 4.944 1.77 1.038 1.225-.977 1.05-1.408Zm-5.673-.944c-.313.357-.749.545-1.205.668-.684.184-.945.783-.805 1.483.192.967 1.198 1.97 2.282 2.215.409.092.746-.058.982-.406.11-.165.247-.217.441-.245a1.046 1.046 0 0 0 .9-.89c.193-1.085-.235-2.361-1.015-2.932-.603-.412-1.151-.385-1.58.107Zm5.215-17.412c-.34.332-.788.485-1.253.572-.696.129-1.002.705-.918 1.414.116.98 1.04 2.058 2.101 2.388.4.123.75 0 1.01-.328.124-.154.265-.197.46-.209a1.047 1.047 0 0 0 .967-.817c.276-1.066-.05-2.371-.782-3.003-.57-.457-1.119-.472-1.585-.017Zm-15.537 3.95a2.177 2.177 0 0 1-1.294.341c-.722-.024-1.135.397-1.206 1.122-.097 1.002.56 2.274 1.545 2.836.371.212.746.167 1.077-.103a.6.6 0 0 1 .512-.135c.485.077.85-.117 1.072-.557.507-1.002.461-2.347-.13-3.136-.468-.582-1.012-.718-1.576-.368Zm24.463.384a2.182 2.182 0 0 1-1.214-.564c-.542-.48-1.127-.419-1.641.095-.71.71-1.009 2.11-.603 3.174.15.401.469.606.895.61a.6.6 0 0 1 .48.222.945.945 0 0 0 1.181.255c1.025-.448 1.84-1.516 1.885-2.503.007-.748-.326-1.2-.983-1.29m-15.212 3.463c-.445-.203-.951-.192-1.4.367-.553.69-.808 2.024-.094 3.337a.865.865 0 0 0 .955.445.699.699 0 0 1 .587.156c.358.276.743.273 1.124.041.148-.087 1.516-.997 1.47-2.73-.021-.786-.494-1.242-1.274-1.221-1.002.062-.8-.137-1.368-.395Zm-1.449-8.002c-.375-.313-.867-.438-1.447-.017-.716.52-1.31 1.738-.968 3.194.095.4.392.64.803.68a.702.702 0 0 1 .525.308c.275.363.645.462 1.074.34.165-.047 1.724-.562 2.137-2.246.186-.763-.151-1.327-.908-1.515-.984-.206-.736-.344-1.216-.744Zm7.024 10.939c.678-.389 1.309-.212 1.697.47.856 1.506.08 2.957-.009 3.107-.228.384-.564.57-1.011.495a.7.7 0 0 0-.59.142c-.328.253-.708.286-1.05.061-1.248-.819-1.651-2.113-1.49-2.985.132-.705.573-.955 1.06-.988.622-.044.537.228 1.393-.302Z" style="fill:currentColor"/><path d="M87.171 28.115a.334.334 0 0 0-.338-.334H34.84a.343.343 0 0 0-.341.344v1.029c0 .19.154.343.343.343H85.27c.11 0 .2.085.2.196V72.22c-.002 5.607-.535 9.869-4.091 15.448-1.94 3.044-5.387 5.543-8.217 7.74-.187.144.01.43.213.307 3.175-1.918 6.041-4.228 8.403-7.164 3.538-4.395 5.399-9.405 5.399-15.08l-.006-45.355ZM175.284 47.073c0-3.558 2.618-5.327 6.741-5.327 4.346 0 7.627 2.299 9.615 5.09V38.83c-2.402-1.087-5.807-2.159-10.157-2.159-7.486 0-12.465 4.644-12.465 10.59 0 12.464 17.971 10.936 17.971 20.007 0 4.365-3.212 6.5-7.884 6.5-3.799 0-7.621-2.013-10.054-5.135v8.445c3.556 1.331 6.56 1.834 9.903 1.834 7.373 0 14.546-3.494 14.546-12.051 0-13.294-18.216-11.534-18.216-19.788Zm-70.774 8.325h6.079c4.647 0 6.859-2.43 6.859-6.503 0-3.577-1.773-6.503-7.243-6.503h-5.695v13.006Zm23.27 22.88h-6.421a3.202 3.202 0 0 1-2.857-1.762l-8.139-16.122h-5.853v12.134c0 3.13.716 4.684 1.304 5.75h-8.988c.59-1.066 1.304-2.62 1.304-5.75v-29.51c0-3.128-.714-4.686-1.304-5.75h13.652c9.154 0 13.502 4.85 13.502 11.463 0 5.57-3.522 9.15-7.461 10.776l6.837 12.807c1.517 2.704 2.974 4.598 4.424 5.966v-.001Zm4.74-5.75v-29.51c0-3.13-.714-4.686-1.302-5.75h8.986c-.589 1.064-1.302 2.62-1.302 5.75v11.013h16.365V43.02c0-3.132-.716-4.687-1.304-5.752h8.988c-.589 1.065-1.304 2.622-1.304 5.751v29.51c0 3.13.715 4.684 1.303 5.75h-8.987c.59-1.066 1.303-2.62 1.303-5.75V59.314h-16.364v13.212c0 3.133.716 4.686 1.304 5.753h-8.989c.589-1.067 1.303-2.622 1.303-5.751Z" style="fill:currentColor"/></g><defs><clipPath id="a"><path fill="#fff" d="M0 0h159v70H0z" style="fill:#fff;fill-opacity:1" transform="translate(34.5 27.5)"/></clipPath></defs></svg>